<?xml version="1.0" encoding="UTF-8"?>
<svg width="304px" height="304px" viewBox="0 0 304 304" version="1.1" xmlns="http://www.w3.org/2000/svg" xmlns:xlink="http://www.w3.org/1999/xlink">
    <!-- Generator: Sketch 53 (72520) - https://sketchapp.com -->
    <title>iconfinder_Popular_Social_Media-22_2329259</title>
    <desc>Created with Sketch.</desc>
    <g id="Symbols" stroke="none" stroke-width="1" fill="none" fill-rule="evenodd">
        <g id="Artboard" transform="translate(-386.000000, -350.000000)" fill="#FFFFFF" fill-rule="nonzero">
            <g id="iconfinder_Popular_Social_Media-22_2329259" transform="translate(386.000000, 350.000000)">
                <path d="M275.573003,0 L28.4258685,0 C12.7476484,0 0,12.7465677 0,28.424846 L0,275.572898 C0,291.253432 12.7465204,304 28.4258685,304 L275.573003,304 C291.252352,304 304,291.253432 304,275.572898 L304,28.424846 C304,12.7465677 291.25348,0 275.573003,0 Z M100.281275,234.738761 C89.5651742,234.625959 78.7351438,234.625959 67.9062415,234.738761 C65.8758224,234.738761 65.311817,234.175881 65.311817,232.032653 L65.311817,117.65082 C65.311817,115.507592 65.9886234,114.944712 68.0190426,114.944712 C78.7351438,115.057514 89.5640461,115.057514 100.281275,114.944712 C102.423368,114.944712 102.988501,115.621521 102.874572,117.65082 L102.874572,174.955102 C102.874572,194.018553 102.874572,213.080876 102.988501,232.144327 C102.988501,234.175881 102.311695,234.738761 100.281275,234.738761 Z M84.149595,99.6025826 C72.192682,99.715384 62.3789893,89.67718 62.3789893,77.8318961 C62.4917904,66.4389462 71.1774724,56.1740111 84.0379219,56.0612096 C96.219309,55.9484082 105.921329,65.1981299 105.921329,77.8318961 C105.921329,90.2411874 96.4449112,99.4909091 84.149595,99.6025826 Z M238.235851,234.738761 L206.538751,234.738761 C203.944327,234.738761 203.832654,234.625959 203.832654,231.918724 L203.832654,173.938761 C203.832654,168.525417 203.718725,163.109818 202.13951,157.808148 C199.659014,149.574768 194.356236,145.625588 185.670554,145.399985 C179.579297,145.287184 173.826442,146.415199 169.540002,151.152861 C166.043169,154.87531 164.576755,159.387369 163.899948,164.351763 C163.448744,168.749892 163.110341,173.261952 163.110341,177.775139 C162.998668,195.93505 162.998668,214.096089 163.110341,232.144327 C163.110341,234.175881 162.546336,234.738761 160.628718,234.738761 C149.799815,234.625959 138.85924,234.625959 128.02921,234.738761 C126.112719,234.738761 125.435913,234.175881 125.435913,232.144327 C125.548714,194.018553 125.548714,155.777722 125.435913,117.538019 C125.435913,115.507592 126.22552,114.944712 128.02921,114.944712 C138.406908,115.057514 148.785734,115.057514 159.162304,114.944712 C161.192723,114.944712 161.869529,115.734323 161.756728,117.65082 C161.643927,121.824475 161.756728,126.110931 161.756728,130.284586 C167.622384,121.598872 175.519586,116.071599 185.44608,113.591095 C196.950661,110.771058 208.343568,111.672341 219.173599,116.411132 C229.66297,120.922063 235.303023,129.494976 238.236979,140.098315 C240.26627,146.979206 241.169806,154.085699 241.282607,161.304994 C241.394281,184.654902 241.507082,208.005937 241.619883,231.467518 C241.619883,234.738761 241.619883,234.738761 238.235851,234.738761 Z" id="Shape"></path>
            </g>
        </g>
    </g>
</svg>