<?xml version="1.0" encoding="UTF-8"?>
<svg width="315px" height="315px" viewBox="0 0 315 315" version="1.1" xmlns="http://www.w3.org/2000/svg" xmlns:xlink="http://www.w3.org/1999/xlink">
    <!-- Generator: Sketch 53 (72520) - https://sketchapp.com -->
    <title>Artboard Copy</title>
    <desc>Created with Sketch.</desc>
    <g id="Artboard-Copy" stroke="none" stroke-width="1" fill="none" fill-rule="evenodd">
        <rect fill="#4A4A4A" x="0" y="0" width="315" height="315"></rect>
        <ellipse id="Oval" stroke="#979797" fill="#FFFFFF" cx="158" cy="158" rx="130" ry="120"></ellipse>
        <path d="M158,289 C85.6506978,289 27,230.349302 27,158 C27,85.6506978 85.6506978,27 158,27 C230.349302,27 289,85.6506978 289,158 C289,230.349302 230.349302,289 158,289 Z M195.58588,120.790659 C197.376381,116.950916 197.711658,112.998136 196.59172,108.9322 C195.471782,104.866265 192.991979,101.93809 189.152236,100.147588 C182.711376,97.1441663 174.279656,104.069521 163.856821,120.923859 C160.753909,125.961164 154.771526,137.496913 145.909495,155.531453 C133.027776,149.524609 118.586137,144.599884 102.584146,140.757131 C97.473057,139.429361 94.3312986,138.567509 93.1587763,138.171548 L95.1514214,133.898307 C101.851363,119.530236 109.299209,107.923876 117.495184,99.07888 C117.850079,98.6411873 119.401845,97.2536793 122.15053,94.9163142 C124.181077,93.1488508 125.542879,91.5219675 126.235977,90.0356152 C127.564414,87.1867735 127.375702,84.1960015 125.669836,81.0632094 C123.963971,77.9304174 121.624721,75.6709578 118.652017,74.284763 C113.821372,72.0321964 109.288933,72.8591581 105.054563,76.7656728 C99.9287827,81.6136774 92.2832926,94.937396 82.1178639,116.737228 C81.1359759,118.842894 79.6217679,121.605057 77.5751944,125.0238 C75.2398303,129.061857 73.6348133,131.857072 72.7600951,133.409529 C71.0427104,133.211882 69.2489818,133.016325 67.3788553,132.822852 C65.5087289,132.629378 64.2271362,133.275808 63.5340388,134.76216 C62.3211183,137.363277 61.8472078,140.158158 62.1122931,143.146888 C62.3773784,146.135618 63.5710824,148.426377 65.6934409,150.019232 C55.9747182,174.74169 51.5162244,188.345181 52.3178256,190.830114 C53.5905053,194.891877 56.5182608,197.991236 61.1011801,200.128287 C66.0556875,202.438611 69.2837482,201.983566 70.7854593,198.763136 C71.0742499,198.143823 71.1772449,197.437883 71.0944475,196.645295 C69.6318006,192.344154 71.0952636,185.486904 75.4848806,176.07334 C80.9719018,164.306385 83.8430717,157.502386 84.0984765,155.661139 C93.2719946,157.978476 102.507305,160.324657 111.804686,162.699752 C122.580073,165.462461 131.617406,168.394895 138.916958,171.49714 C137.910698,174.948602 136.285482,179.242333 134.041262,184.378461 L130.489155,191.995978 C128.698654,195.835721 127.291947,199.17579 126.268994,202.016286 C123.555029,210.100079 122.090899,214.695115 121.87656,215.801533 C121.052587,221.449138 122.993963,225.370286 127.700745,227.565094 C130.177999,228.720257 132.82206,228.709157 135.633009,227.531794 C138.443959,226.354432 140.426985,224.527151 141.582147,222.049897 C142.044212,221.058996 142.501763,218.784263 142.954815,215.225631 C143.325069,210.874411 145.147928,204.863322 148.423448,197.192182 C151.071975,191.189015 153.691584,185.247868 156.282353,179.368564 L162.375966,180.852908 C165.018148,181.330999 166.685762,180.826875 167.37886,179.340523 C168.302989,177.35872 168.419924,174.925155 167.729665,172.039755 C167.039407,169.154355 165.765327,167.278497 163.907387,166.412125 C163.411936,166.181093 162.949544,166.040873 162.520198,165.991461 L165.713238,158.658894 C173.782682,140.707151 180.842586,129.447668 186.893164,124.880108 C187.42968,124.376311 188.882625,123.847482 191.252041,123.293606 C193.621458,122.73973 195.066057,121.905423 195.58588,120.790659 Z M257.990322,185.805129 C266.769556,166.978001 266.157769,150.180835 256.154942,135.413126 C252.652735,130.311717 249.291466,127.010207 246.071036,125.508496 C235.790434,120.714572 224.686358,122.699347 212.758478,131.46288 C202.564007,138.772779 194.867773,148.001411 189.669542,159.149053 C184.413553,170.420557 182.794178,180.52256 184.811368,189.455365 C186.919701,199.486242 193.423729,207.042924 204.323645,212.125638 C214.975836,217.092836 225.630372,216.557166 236.287575,210.518612 C245.557915,205.190516 252.792092,196.952771 257.990322,185.805129 Z M241.813803,177.809509 C238.406074,185.117408 234.312655,190.823686 229.533423,194.928514 C223.26016,200.297009 216.965124,201.508406 210.648127,198.562742 C200.862975,193.999851 199.81133,183.481694 207.49316,167.007957 C211.074163,159.328471 215.518299,153.031768 220.8257,148.117658 C227.92427,141.626053 234.755814,139.910866 241.320536,142.972047 C250.486375,147.246147 250.650795,158.858519 241.813803,177.809509 Z" id="Combined-Shape" fill="#4A4A4A"></path>
    </g>
</svg>