<?xml version="1.0" encoding="UTF-8"?>
<svg width="265px" height="158px" viewBox="0 0 265 158" version="1.1" xmlns="http://www.w3.org/2000/svg" xmlns:xlink="http://www.w3.org/1999/xlink">
    <!-- Generator: Sketch 53 (72520) - https://sketchapp.com -->
    <title>Ameythst</title>
    <desc>Created with Sketch.</desc>
    <g id="Rooms" stroke="none" stroke-width="1" fill="none" fill-rule="evenodd">
        <g id="Activities-Box-(1)" transform="translate(-608.000000, -228.000000)" fill-rule="nonzero">
            <g id="Ameythst" transform="translate(738.533904, 307.352636) rotate(-98.000000) translate(-738.533904, -307.352636) translate(652.033904, 179.352636)">
                <path d="M169.914964,77.7636806 L161.407875,66.2195465 L164.243572,54.9569766 C164.527141,54.1122839 164.243572,53.2675912 163.960002,52.7044627 L147.229393,27.0821163 C146.945823,26.8005521 146.945823,26.5189878 146.662254,26.2374236 L115.753163,2.86759117 C115.469593,2.86759117 115.469593,2.58602692 115.186024,2.58602692 C115.186024,2.58602692 114.902454,2.58602692 114.902454,2.30446268 C114.618884,2.30446268 114.335315,2.30446268 114.335315,2.30446268 C114.335315,2.30446268 114.051745,2.30446268 114.051745,2.30446268 C113.768175,2.30446268 113.484606,2.30446268 113.484606,2.58602692 C113.484606,2.58602692 113.201036,2.58602692 113.201036,2.58602692 C112.917466,2.58602692 112.917466,2.86759117 112.633897,2.86759117 C112.350327,2.86759117 112.350327,3.14915541 112.350327,3.14915541 L87.6797683,32.7134012 C83.7097934,34.4027867 79.7398184,36.3737364 78.6055398,36.6553007 C78.3219702,36.6553007 78.0384005,36.9368649 77.7548309,36.9368649 C77.1876916,37.2184292 76.904122,37.7815576 76.6205523,38.0631219 C73.7848559,42.0050213 45.1443221,84.5212225 25.8615865,112.959211 L11.6831045,134.07653 C9.13097768,138.018429 7.42955984,140.270943 6.57885091,141.960329 C6.57885091,141.960329 6.29528127,142.241893 6.29528127,142.241893 C6.01171163,142.805021 5.72814199,143.086586 5.72814199,143.649714 C5.44457235,144.212843 5.44457235,144.775971 5.72814199,145.057535 C5.1610027,150.68882 2.32530629,176.592731 0.340318801,192.923457 C0.340318801,193.205021 0.340318801,193.486586 0.340318801,193.486586 L5.1610027,236.847479 C5.1610027,237.129044 5.44457235,237.692172 5.44457235,237.973736 L11.6831045,248.673178 C11.6831045,248.673178 11.9666741,248.954742 11.9666741,248.954742 C11.9666741,249.236306 12.2502437,249.236306 12.2502437,249.236306 C12.5338134,249.236306 12.5338134,249.51787 12.817383,249.51787 C12.817383,249.51787 13.1009527,249.799435 13.1009527,249.799435 L28.6972829,254.304463 C28.9808526,254.304463 29.2644222,254.304463 29.5479919,254.304463 C29.8315615,254.304463 30.1151311,254.304463 30.3987008,254.304463 L67.2627542,243.886586 C67.8298934,243.605021 68.3970327,243.323457 68.6806024,242.760329 L139.573013,145.902228 C139.856582,145.3391 140.140152,145.057535 140.140152,144.494407 L140.707291,134.921222 L169.914964,80.8608873 C170.482104,79.7346303 170.482104,78.6083733 169.914964,77.7636806 Z" id="Path-5" fill="#9013FE"></path>
                <path d="M169.914964,77.7636806 L161.407875,66.2195465 L164.243572,54.9569766 C164.527141,54.1122839 164.243572,53.2675912 163.960002,52.7044627 L147.229393,27.0821163 C146.945823,26.8005521 146.945823,26.5189878 146.662254,26.2374236 L115.753163,2.86759117 C115.469593,2.86759117 115.469593,2.58602692 115.186024,2.58602692 C115.186024,2.58602692 114.902454,2.58602692 114.902454,2.30446268 C114.618884,2.30446268 114.335315,2.30446268 114.335315,2.30446268 C114.335315,2.30446268 114.051745,2.30446268 114.051745,2.30446268 C113.768175,2.30446268 113.484606,2.30446268 113.484606,2.58602692 C113.484606,2.58602692 113.201036,2.58602692 113.201036,2.58602692 C112.917466,2.58602692 112.917466,2.86759117 112.633897,2.86759117 C112.350327,2.86759117 112.350327,3.14915541 112.350327,3.14915541 L87.6797683,32.7134012 C83.7097934,34.4027867 79.7398184,36.3737364 78.6055398,36.6553007 C78.3219702,36.6553007 78.0384005,36.9368649 77.7548309,36.9368649 C77.1876916,37.2184292 76.904122,37.7815576 76.6205523,38.0631219 C73.7848559,42.0050213 45.1443221,84.5212225 25.8615865,112.959211 L11.6831045,134.07653 C9.13097768,138.018429 7.42955984,140.270943 6.57885091,141.960329 C6.57885091,141.960329 6.29528127,142.241893 6.29528127,142.241893 C6.01171163,142.805021 5.72814199,143.086586 5.72814199,143.649714 C5.44457235,144.212843 5.44457235,144.775971 5.72814199,145.057535 C5.1610027,150.68882 2.32530629,176.592731 0.340318801,192.923457 C0.340318801,193.205021 0.340318801,193.486586 0.340318801,193.486586 L5.1610027,236.847479 C5.1610027,237.129044 5.44457235,237.692172 5.44457235,237.973736 L11.6831045,248.673178 C11.6831045,248.673178 11.9666741,248.954742 11.9666741,248.954742 C11.9666741,249.236306 12.2502437,249.236306 12.2502437,249.236306 C12.5338134,249.236306 12.5338134,249.51787 12.817383,249.51787 C12.817383,249.51787 13.1009527,249.799435 13.1009527,249.799435 L28.6972829,254.304463 C28.9808526,254.304463 29.2644222,254.304463 29.5479919,254.304463 C29.8315615,254.304463 30.1151311,254.304463 30.3987008,254.304463 L67.2627542,243.886586 C67.8298934,243.605021 68.3970327,243.323457 68.6806024,242.760329 L139.573013,145.902228 C139.856582,145.3391 140.140152,145.057535 140.140152,144.494407 L140.707291,134.921222 L169.914964,80.8608873 C170.482104,79.7346303 170.482104,78.6083733 169.914964,77.7636806 Z" id="Path" fill="#9013FE"></path>
                <polygon id="Path" fill="#9013FE" points="128.899776 109.028809 107.766086 130.344599 87.4666206 126.081441 136.685872 49.3445986 139.466621 55.0288091"></polygon>
                <path d="M90.4795499,181.850039 L81.4852792,180.585977 C68.6364016,177.645741 61.693262,174.792783 60.6558602,172.027104 C54.2772439,155.021921 66.509959,138.030284 66.0968961,130.520995 C65.583064,121.179769 69.5493433,118.800725 77.9957342,123.383862 L94,130 L90.4795499,181.850039 Z" id="Path" fill="#D2A8F7"></path>
                <path d="M112.026616,13.5701514 C116.006068,17.5076514 123.344571,31.5715294 131.871968,41.6965294 L78.4336117,122.415279 L67.0637487,124.946529 L48.8719679,109.196529 L112.026616,13.5701514 Z" id="Path" fill="#A143F3"></path>
                <path d="M154.190377,38.0110093 L131.781016,40.9251141 C115.850823,24.6291795 114.94065,18.2477005 112.068075,13.2751569 L113.83782,0.682762091 L146.584985,26.3452556 L154.190377,38.0110093 Z" id="Path" fill="#6F26B0"></path>
                <path d="M30.5288228,116.871612 C41.0682168,101.375076 53.6015501,82.779233 63.5712471,67.8462076 C68.6985198,60.5205725 72.9712471,54.040203 76.1045804,49.2503647 C78.3833683,46.1510575 79.5227622,43.8970159 80.3773077,42.48824 C82.3712471,41.9247296 85.2197319,40.5159536 90.0621562,38.261912 C90.3470047,37.9801568 90.9167016,37.6984016 91.2015501,37.4166464 L111.710641,12.9039443 L111.710641,14.5944755 L47.6197319,110.391242 L27.9651865,128.423575 L17.710641,134.903944 C21.4136713,130.114106 25.6863986,123.633736 30.5288228,116.871612 Z" id="Path" fill="#A143F3"></path>
                <path d="M0.113814395,191.935608 C4.15435494,159.122275 4.67599763,148.411861 4.98680844,142.891861 L31.2345622,125.621414 L20.0527095,234.168649 L12.9808526,250.131675 L3.66065272,237.450624 L0.113814395,191.935608 Z" id="Path" fill="#A143F3"></path>
                <polygon id="Path" fill="#7317C3" points="161.733519 68.7136561 148.48991 51.7164397 142.798342 38.9180257 154.23991 37.6585627 164.948557 54.0295517"></polygon>
                <path d="M67.7621166,244.21951 L28.4400661,255.163406 L11.0840366,250.013529 L22.3271766,217.984974 L61.3343208,173.076269 L82.5963579,180.542711 C83.723342,183.920862 88.4572474,195.533787 94.0921681,209.046392 L67.7621166,244.21951 Z" id="Path" fill="#B374EB"></path>
                <path d="M98.6015603,202.50324 C94.6127335,192.50324 90.5698324,183.285714 90,181.285714 L93.7162122,129.484849 L116.497207,137 C117.351955,137.285714 118.49162,137 119.061453,136.142857 L138.435754,117 L141,135.857143 L140.838082,146.274852 L98.6015603,202.50324 Z" id="Path" fill="#A143F3"></path>
                <polygon id="Path" fill="#C481FF" points="140.994006 139.093365 138.904542 116.920925 155.904286 61.1294412 164.808542 69.5709996 172.851095 80.5450256"></polygon>
                <polygon id="Path" fill="#CA98F7" points="31.9045926 123.532916 49.333164 107.47454 67.6188783 123.25119 61.9045926 172.271495 21.6188783 218.47454"></polygon>
                <path d="M25.232486,113.801124 C35.77188,98.3045881 47.1173189,81.7098053 57.0870159,66.7767799 C62.2142886,59.4511448 65.8677158,53.977764 69.0010491,49.1879256 C71.279837,46.0886185 75.0765296,37.6846941 75.9310751,36.2759181 C77.9250145,35.7124077 82.2905503,35.5358304 87.1329746,33.2817889 C87.4178231,33.0000337 113.552972,0.964517287 113.83782,0.682762091 L111.710641,12.9039443 L111.710641,14.5944755 L47.6197319,110.391242 L27.9651865,128.423575 L4.94444907,143.193263 C8.64747937,138.403425 20.3900618,120.563249 25.232486,113.801124 Z" id="Path" fill="#BA85E8"></path>
            </g>
        </g>
    </g>
</svg>