<?xml version="1.0" encoding="UTF-8"?>
<svg width="112px" height="85px" viewBox="0 0 112 85" version="1.1" xmlns="http://www.w3.org/2000/svg" xmlns:xlink="http://www.w3.org/1999/xlink">
    <!-- Generator: Sketch 53 (72520) - https://sketchapp.com -->
    <title>noun_education_199810</title>
    <desc>Created with Sketch.</desc>
    <g id="Page-3" stroke="none" stroke-width="1" fill="none" fill-rule="evenodd">
        <g id="Artboard" transform="translate(-124.000000, -1814.000000)" fill-rule="nonzero">
            <g id="noun_education_199810" transform="translate(124.000000, 1814.000000)">
                <g id="Group" fill="#4A4A4A">
                    <path d="M53.0090909,79.3333333 C53.0090909,80.4666667 52.1181818,81.4111111 51.0363636,81.4740741 L15.2090909,74.6740741 L14.9545455,74.6740741 C13.7454545,74.6740741 12.7272727,73.6666667 12.7272727,72.4703704 L12.7272727,11.7740741 L12.7272727,2.2037037 C12.7272727,1.07037037 13.6181818,0.125925926 14.7,0.062962963 L50.5272727,6.86296296 L50.7818182,6.86296296 C51.9909091,6.86296296 53.0090909,7.87037037 53.0090909,9.06666667 L53.0090909,11.837037 L53.0090909,79.3333333 L53.0090909,79.3333333 Z" id="Path"></path>
                    <path d="M98.7636364,72.5333333 C98.7636364,73.7296296 97.8090909,74.737037 96.5363636,74.737037 L96.2818182,74.737037 L60.4545455,81.537037 C59.3090909,81.4111111 58.4818182,80.5296296 58.4818182,79.3962963 L58.4818182,11.7740741 L58.4818182,9.0037037 C58.4818182,7.80740741 59.4363636,6.8 60.7090909,6.8 L60.9636364,6.8 L76.5545455,3.84074074 L91.6363636,0.944444444 L96.7272727,8.52651283e-14 C97.8727273,0.125925926 98.7,1.07037037 98.7,2.14074074 L98.7,11.7111111 L98.7,72.5333333 L98.7636364,72.5333333 Z" id="Path"></path>
                    <path d="M111.490909,16.6851852 L111.490909,79.2074074 C111.490909,81.9148148 109.263636,84.1185185 106.527273,84.1185185 L76.1090909,84.1185185 L96.8545455,80.2148148 C100.990909,80.0888889 104.3,76.6888889 104.3,72.5962963 L104.3,11.7740741 L106.527273,11.7740741 C109.263636,11.7740741 111.490909,13.9777778 111.490909,16.6851852 Z" id="Path"></path>
                    <path d="M35.3181818,84.1185185 L4.96363636,84.1185185 C2.22727273,84.1185185 0,81.9148148 0,79.2074074 L0,16.6851852 C0,13.9777778 2.22727273,11.7740741 4.96363636,11.7740741 L7.19090909,11.7740741 L7.19090909,72.5333333 C7.19090909,76.6259259 10.5,80.0259259 14.5727273,80.1518519 L35.3181818,84.1185185 Z" id="Path"></path>
                </g>
                <g id="quiz" transform="translate(61.000000, 29.000000)" fill="#ECECEC">
                    <g id="Group">
                        <path d="M23.0205666,13.8024912 C22.9646473,13.8024912 22.9076595,13.8063509 22.8517403,13.8148421 C22.149366,13.9167368 21.6542847,14.6180351 21.7476022,15.3791579 C21.8323715,16.0681053 22.3805227,16.587614 23.0223474,16.587614 C23.0786229,16.587614 23.1352545,16.5837544 23.1915299,16.5756491 C23.893548,16.4737544 24.3886293,15.7724561 24.295668,15.0109474 C24.2105425,14.322 23.6623913,13.8024912 23.0205666,13.8024912 Z" id="Path"></path>
                        <path d="M24.7825572,5.43554386 C24.209474,5.02526316 23.4529613,4.80835088 22.5935145,4.80835088 C22.3409874,4.80835088 22.0813369,4.82726316 21.8220425,4.86470175 C20.9643765,4.98859649 20.1323551,5.43863158 19.5389699,6.09863158 C18.9373927,6.76866667 18.6449742,7.58652632 18.7382917,8.34224561 C18.806677,8.89996491 19.1941939,9.26045614 19.7252487,9.26045614 C19.7822364,9.26045614 19.8402927,9.25582456 19.898349,9.2477193 C20.6078468,9.14505263 20.7610014,8.61550877 20.9084573,8.1037193 C21.0769274,7.52014035 21.2357808,6.96936842 22.1525716,6.83659649 C22.2466014,6.82308772 22.338138,6.81614035 22.4250444,6.81614035 C23.085034,6.81614035 23.4946336,7.19361404 23.5790467,7.87908772 C23.661679,8.54989474 23.1722965,9.08484211 22.654064,9.65105263 C22.0724325,10.2867368 21.4131552,11.0069474 21.5388845,12.0285965 C21.5712963,12.2918246 21.6785045,12.5372982 21.8402073,12.7198596 C22.0257738,12.9294386 22.2686842,13.0402105 22.5425816,13.0402105 C22.5928021,13.0402105 22.6448034,13.0367368 22.6964486,13.0290175 C23.4387143,12.9217193 23.5398676,12.4550877 23.6374592,12.0031228 C23.6745012,11.8325263 23.712968,11.6557544 23.7870521,11.4967368 C23.8899863,11.2744211 24.1474998,11.0135088 24.4463294,10.7116842 C25.1593889,9.98954386 26.1356606,9.00070175 25.9550806,7.53596491 C25.8421736,6.61852632 25.4471771,5.91182456 24.7825572,5.43554386 Z" id="Path"></path>
                        <path d="M32.754078,17.6023158 L30.7655609,1.45354386 C30.6633391,0.625263158 30.0051303,0 29.2340146,0 C29.1659854,0 29.0965316,0.00501754386 29.0285024,0.0150526316 L14.1265563,2.16989474 C13.2817126,2.29224561 12.6861903,3.13635088 12.7987412,4.05224561 L12.9123606,4.97624561 L3.13860153,3.44589474 C3.08161376,3.43701754 3.02355746,3.43238596 2.96621352,3.43238596 C2.37460921,3.43238596 1.86492483,3.91136842 1.77979935,4.5462807 L0.112194676,17.0550175 C0.0666044582,17.3989123 0.147099686,17.7408772 0.338721068,18.0191579 C0.530698624,18.2970526 0.810651053,18.4776842 1.12800171,18.5270877 L12.6708749,20.3341754 C12.7282188,20.3426667 12.7862751,20.3469123 12.8432629,20.3469123 C13.4348672,20.3469123 13.9445516,19.8687018 14.0293209,19.2334035 L14.3612747,16.7427719 L14.7869021,20.1998596 C14.8891239,21.0289123 15.5473327,21.6537895 16.3180923,21.6537895 C16.3864776,21.6537895 16.4559314,21.6491579 16.5239606,21.6395088 L31.4262629,19.4838947 C31.834794,19.4252281 32.1988034,19.1967368 32.4495496,18.8412632 C32.7010081,18.4861754 32.8085725,18.0457895 32.754078,17.6023158 Z M13.0441448,19.0797895 C13.0284731,19.1982807 12.9251828,19.2839649 12.8137005,19.2662105 L1.27047114,17.4591228 C1.19745555,17.4479298 1.15542707,17.4004561 1.13654987,17.3730526 C1.11767267,17.3456491 1.08775409,17.2877544 1.09808313,17.2090175 L2.7656878,4.7002807 C2.78029091,4.59259649 2.86648492,4.51115789 2.96621352,4.51115789 C2.97618638,4.51115789 2.98651541,4.51192982 2.9961321,4.51347368 L13.0494874,6.08705263 L13.8786595,12.8198246 L13.0441448,19.0797895 Z M31.4301808,17.996386 C31.4056048,18.0315088 31.3500418,18.0921053 31.2563681,18.105614 L16.354422,20.2608421 C16.2101717,20.2824561 16.0787436,20.1701404 16.0595102,20.0165263 L14.0709932,3.86814035 C14.0517598,3.71259649 14.1529131,3.56940351 14.2964511,3.5485614 L29.198041,1.39333333 C29.2105071,1.39178947 29.2219047,1.39101754 29.2343707,1.39101754 C29.3647303,1.39101754 29.4765688,1.49715789 29.4936651,1.63803509 L31.4828945,17.786807 C31.4946482,17.8883158 31.4544006,17.9616491 31.4301808,17.996386 Z" id="Shape"></path>
                        <path d="M10.3856652,8.13884211 C9.92833836,7.68494737 9.25089622,7.36807018 8.47871191,7.24726316 C8.33766718,7.22487719 8.19270453,7.21368421 8.04845424,7.21368421 C7.44189064,7.21368421 6.84565608,7.40666667 6.36838349,7.75712281 C5.87793248,8.11761404 5.56841765,8.60740351 5.49825145,9.13578947 C5.46477114,9.38705263 5.51997804,9.61091228 5.65852956,9.78382456 C5.78319031,9.93898246 5.97089378,10.0435789 6.18744732,10.0775439 C6.24194187,10.0860351 6.29429939,10.0906667 6.34416369,10.0906667 C6.78118866,10.0906667 6.97637178,9.76761404 7.16514378,9.45536842 C7.37564236,9.10568421 7.57509956,8.77529825 8.10544201,8.77529825 C8.17881377,8.77529825 8.25824047,8.78185965 8.34051657,8.79459649 C8.96880675,8.89263158 9.28259567,9.29557895 9.20174427,9.9 C9.13300277,10.4191228 8.66285365,10.7066667 8.16599152,11.0104211 C7.60786753,11.351614 6.97494709,11.7383509 6.86951971,12.5299649 C6.8399573,12.7507368 6.88127344,12.9807719 6.98349525,13.1602456 C7.06719604,13.3076842 7.23103589,13.4933333 7.53805751,13.5415789 C7.60216875,13.5512281 7.66307443,13.5566316 7.71934986,13.5566316 L7.71970603,13.5566316 C8.1513884,13.5566316 8.29848809,13.2690877 8.44024517,12.991193 C8.50115085,12.8719298 8.5638374,12.748807 8.65038758,12.6472982 C8.77041807,12.5048772 9.01404079,12.3690175 9.29577409,12.2119298 C9.96894215,11.8367719 10.8910755,11.3218947 11.0420931,10.1879298 C11.1493014,9.38087719 10.922775,8.67224561 10.3856652,8.13884211 Z" id="Path"></path>
                        <path d="M7.49994693,14.1633684 C7.45293202,14.1560351 7.40556094,14.1517895 7.35854603,14.1517895 C6.86595797,14.1517895 6.4410429,14.5504912 6.37052053,15.0781053 C6.29251852,15.6674737 6.67113103,16.2163158 7.21500808,16.301614 C7.26202299,16.3093333 7.30975025,16.3124211 7.35640898,16.3124211 C7.84935321,16.3124211 8.27426828,15.9144912 8.34443448,15.3868772 C8.42243649,14.7975088 8.04382398,14.2490526 7.49994693,14.1633684 Z" id="Path"></path>
                    </g>
                </g>
            </g>
        </g>
    </g>
</svg>