<?xml version="1.0" encoding="UTF-8"?>
<svg width="131px" height="128px" viewBox="0 0 131 128" version="1.1" xmlns="http://www.w3.org/2000/svg" xmlns:xlink="http://www.w3.org/1999/xlink">
    <!-- Generator: Sketch 53 (72520) - https://sketchapp.com -->
    <title>Group 5</title>
    <desc>Created with Sketch.</desc>
    <g id="Page-3" stroke="none" stroke-width="1" fill="none" fill-rule="evenodd">
        <g id="Artboard" transform="translate(-443.000000, -1462.000000)">
            <g id="Group-5" transform="translate(443.000000, 1462.000000)">
                <rect id="Rectangle" fill="#4A4A4A" x="67" y="0" width="64" height="50" rx="25"></rect>
                <circle id="Oval" fill="#4A4A4A" cx="66.5" cy="47.5" r="5.5"></circle>
                <circle id="Oval" fill="#4A4A4A" cx="58" cy="56" r="3"></circle>
                <g id="noun_Kid_1981727" transform="translate(0.000000, 42.000000)" fill="#4A4A4A" fill-rule="nonzero">
                    <path d="M22.6133378,48 L13.50452,48 C12.0537942,48 10.6884082,48.5678498 9.64841264,49.6102963 C8.62645093,50.6555322 8.06309064,52.0264462 8.06309064,53.4725141 C8.06309064,54.2608761 8.25345295,55.0226968 8.57450338,55.7230356 C6.40197765,57.4720758 4.87875267,59.4900773 3.16906805,61.8928299 C1.01483967,65.0160067 0.295375621,70.5010466 0.0719739174,74.5539336 C-0.119512823,78.0876841 0.10041796,82.1336082 0.387649451,84.407797 C0.560404349,85.7105096 1.53240918,86 4.08557005,86 C4.90841048,86 5.89498368,85.9693805 7.07166114,85.9331928 C8.61812909,85.8872636 10.4296231,85.8524706 12.2806667,85.8343821 L15.6684606,85.842729 C19.6556985,85.8566441 25.1137715,85.8747432 27.3706838,85.8343821 L29.924977,85.8482972 C29.9394558,85.8487304 29.9515117,85.8566441 29.9661695,85.8566441 C29.9800426,85.8566441 29.9914929,85.8491636 30.0052816,85.8487304 L31.9670725,85.8594335 L35.1217525,85.8510759 C36.5232169,85.8455078 38.3180624,85.8385556 41.6135797,85.8343821 C42.8742066,85.8301982 44.1355234,85.8441237 45.3052591,85.8552495 C51.9948223,85.9220567 53.5863803,85.9317983 53.812563,84.1544841 C54.05955,82.1851062 54.062331,78.9547718 53.8215801,74.5539342 C53.5995688,70.5066153 52.8814874,65.0243542 50.7120007,61.874742 C49.0238263,59.5044369 47.5262723,57.5241867 45.3921582,55.7876669 C45.735414,55.0668094 45.9373055,54.2834028 45.9373055,53.4725148 C45.9373055,52.0264468 45.3739452,50.6555329 44.3415814,49.6005554 C43.3119879,48.5678504 41.946602,48.0000007 40.4958814,48.0000007 L31.3870583,48.0000007 L22.6133378,48 Z M15.6774829,82.9923489 L14.0907757,82.988429 L2.68001327,82.988429 C2.68001327,73.3844623 3.48562046,69.1599708 3.90856994,67.4794703 C4.33151941,65.7989699 4.8621881,64.4472857 5.49397091,63.5309622 C7.11779943,61.2485216 8.47069746,59.4505938 10.3816626,57.9206656 C11.2842917,58.5648898 12.3691246,58.9297138 13.5045199,58.9297138 L15.7517148,58.9297138 L15.7517148,66.0542802 C15.7517148,66.8420293 16.3879272,67.4794703 17.1726089,67.4794703 C17.9572906,67.4794703 18.5934977,66.8420293 18.5934977,66.0542802 L18.5934977,58.9297138 C19.3788744,58.9297138 20.0150816,58.2922728 20.0150816,57.5045236 C20.0150816,56.7167745 19.3788746,56.0793335 18.5941928,56.0793335 L13.5045199,56.0793335 C12.7614627,56.0793335 12.0607358,55.7606077 11.5632805,55.1830215 C11.1324358,54.7028514 10.9048732,54.1113396 10.9048732,53.4725145 C10.9048732,52.5817707 11.3246152,51.9665917 11.6666596,51.6158623 C12.1599436,51.1217771 12.8128047,50.8503858 13.5045199,50.8503858 L22.6098722,50.8503858 L22.6098722,57.5045236 C22.6098722,57.5106095 22.6132535,57.51566 22.6133378,57.5217458 L22.6133378,83.0073945 C20.3538237,83.0071304 17.8093374,82.9990476 15.6774829,82.9923489 Z M31.3905292,57.5045238 L31.3905292,50.850386 L40.4958815,50.850386 C41.1875914,50.850386 41.8404526,51.1217773 42.3233344,51.6061209 C42.675781,51.9665919 43.0955282,52.5817709 43.0955282,53.4725147 C43.0955282,54.1113399 42.8679604,54.7028516 42.4190766,55.2038996 C41.9396656,55.7606079 41.2382383,56.0793336 40.4958816,56.0793336 L35.4062086,56.0793336 C34.621527,56.0793336 33.9853145,56.7167747 33.9853145,57.5045238 C33.9853145,58.2922729 34.6215269,58.9297139 35.4062086,58.9297139 L35.4068985,66.0542803 C35.4068985,66.8420295 36.0431108,67.4794705 36.8277925,67.4794705 C37.6124743,67.4794705 38.2486814,66.8420295 38.2486814,66.0542803 L38.2486814,58.9297139 L40.4958815,58.9297139 C41.6007445,58.9297139 42.6547922,58.5777695 43.5371279,57.9723321 C45.4244184,59.4949487 46.7757573,61.2521774 48.3870874,63.5128737 C49.0142828,64.4234494 49.9933027,65.7905387 50.4198179,67.4794705 C50.8463332,69.1684023 52,69.1684022 52,82.9866011 L39.9096259,82.9866011 C37.6611249,82.9907746 36.2485578,82.9961736 35.1099549,83.0006958 L31.9747046,83.0090427 L31.3870585,83.0058307 L31.3870585,57.5217459 C31.3871426,57.5156601 31.3905292,57.5106096 31.3905292,57.5045238 Z M28.5452809,49.6055602 L28.5452809,56.0793338 L25.4551207,56.0793338 L25.4551207,48.0074368 L28.5452809,49.6055602 Z" id="Shape"></path>
                    <g id="noun_Kid_797548" transform="translate(3.000000, 0.000000)">
                        <g id="Group">
                            <path d="M25,0 C11.25,0 0,11.25 0,25 C0,38.75 11.25,50 25,50 C38.75,50 50,38.75 50,25 C50,11.25 38.75,0 25,0 Z M25,48.0008704 C14,48.0008704 2.89826788,36 2.89826788,25 C2.89826788,24 23.75,17.25 27.5,9.5 C30.75,16 47.8102509,24 47.8102509,25 C47.8102509,36 36,48.0008704 25,48.0008704 Z" id="Shape"></path>
                        </g>
                    </g>
                </g>
                <g id="quiz" transform="translate(79.000000, 13.000000)" fill="#ECECEC" fill-rule="nonzero">
                    <g id="Group">
                        <path d="M27.9037171,15.0572632 C27.8359361,15.0572632 27.7668601,15.0614737 27.6990791,15.0707368 C26.8477164,15.1818947 26.2476179,15.9469474 26.36073,16.7772632 C26.4634806,17.5288421 27.1279062,18.0955789 27.9058757,18.0955789 C27.9740883,18.0955789 28.0427327,18.0913684 28.1109453,18.0825263 C28.9618764,17.9713684 29.5619749,17.2063158 29.4492945,16.3755789 C29.3461121,15.624 28.6816865,15.0572632 27.9037171,15.0572632 Z" id="Path"></path>
                        <path d="M30.0394633,5.92968421 C29.3448169,5.48210526 28.4278319,5.24547368 27.3860781,5.24547368 C27.0799847,5.24547368 26.7652568,5.26610526 26.4509606,5.30694737 C25.4113655,5.44210526 24.4028546,5.93305263 23.6835999,6.65305263 C22.9544154,7.384 22.5999687,8.27621053 22.7130808,9.10063158 C22.7959721,9.70905263 23.2656895,10.1023158 23.9093923,10.1023158 C23.9784684,10.1023158 24.0488397,10.0972632 24.1192109,10.0884211 C24.9792082,9.97642105 25.1648502,9.39873684 25.3435846,8.84042105 C25.5477908,8.20378947 25.7403404,7.60294737 26.8516019,7.45810526 C26.9655774,7.44336842 27.0765309,7.43578947 27.1818719,7.43578947 C27.9818594,7.43578947 28.4783438,7.84757895 28.5806627,8.59536842 C28.680823,9.32715789 28.0876321,9.91073684 27.4594715,10.5284211 C26.7544637,11.2218947 25.9553397,12.0075789 26.1077388,13.1221053 C26.1470258,13.4092632 26.2769752,13.6770526 26.4729786,13.8762105 C26.6979076,14.1048421 26.9923444,14.2256842 27.3243414,14.2256842 C27.3852147,14.2256842 27.4482466,14.2218947 27.5108468,14.2134737 C28.4105628,14.0964211 28.5331729,13.5873684 28.6514657,13.0943158 C28.6963651,12.9082105 28.7429915,12.7153684 28.8327904,12.5418947 C28.9575591,12.2993684 29.2696967,12.0147368 29.6319144,11.6854737 C30.4962289,10.8976842 31.6795887,9.81894737 31.4607038,8.22105263 C31.3238468,7.22021053 30.8450632,6.44926316 30.0394633,5.92968421 Z" id="Path"></path>
                        <path d="M39.7019127,19.2025263 L37.291589,1.58568421 C37.1676838,0.682105263 36.369855,0 35.4351692,0 C35.3527096,0 35.2685231,0.00547368421 35.1860635,0.0164210526 L17.1230985,2.36715789 C16.0990455,2.50063158 15.3772004,3.42147368 15.5136257,4.42063158 L15.6513461,5.42863158 L3.80436549,3.75915789 C3.7352894,3.74947368 3.66491814,3.74442105 3.59541033,3.74442105 C2.8783142,3.74442105 2.26051495,4.26694737 2.15733254,4.95957895 L0.135993546,18.6054737 C0.0807326766,18.9806316 0.178302649,19.3536842 0.410570992,19.6572632 C0.64327106,19.9604211 0.982607337,20.1574737 1.3672748,20.2113684 L15.3586362,22.1827368 C15.428144,22.192 15.4985153,22.1966316 15.5675914,22.1966316 C16.2846875,22.1966316 16.9024868,21.6749474 17.0052374,20.9818947 L17.4076056,18.2648421 L17.9235177,22.0362105 C18.0474229,22.9406316 18.8452517,23.6223158 19.7795058,23.6223158 C19.8623971,23.6223158 19.9465836,23.6172632 20.0290431,23.6067368 L38.0924399,21.2551579 C38.5876291,21.1911579 39.0288526,20.9418947 39.3327874,20.5541053 C39.6375856,20.1667368 39.7679667,19.6863158 39.7019127,19.2025263 Z M15.8110846,20.8143158 C15.7920887,20.9435789 15.6668882,21.0370526 15.5317582,21.0176842 L1.53996501,19.0463158 C1.45146128,19.0341053 1.40051766,18.9823158 1.37763621,18.9524211 C1.35475476,18.9225263 1.31848981,18.8593684 1.33100985,18.7734737 L3.35234885,5.12757895 C3.37004959,5.01010526 3.47452717,4.92126316 3.59541033,4.92126316 C3.60749864,4.92126316 3.62001868,4.92210526 3.63167527,4.92378947 L15.8175605,6.64042105 L16.8226175,13.9852632 L15.8110846,20.8143158 Z M38.0971889,19.6324211 C38.0673998,19.6707368 38.0000506,19.7368421 37.8865068,19.7515789 L19.8235418,22.1027368 C19.6486929,22.1263158 19.4893862,22.0037895 19.466073,21.8362105 L17.0557493,4.21978947 C17.0324361,4.05010526 17.1550462,3.89389474 17.3290316,3.87115789 L35.3915649,1.52 C35.4066753,1.51831579 35.4204905,1.51747368 35.4356009,1.51747368 C35.5936124,1.51747368 35.7291743,1.63326316 35.7498971,1.78694737 L38.1610842,19.4037895 C38.1753312,19.5145263 38.1265462,19.5945263 38.0971889,19.6324211 Z" id="Shape"></path>
                        <path d="M12.5886851,8.87873684 C12.0343495,8.38357895 11.2132075,8.03789474 10.2772266,7.90610526 C10.1062632,7.88168421 9.93055095,7.86947368 9.75570211,7.86947368 C9.02047351,7.86947368 8.29776495,8.08 7.71925272,8.46231579 C7.12476664,8.85557895 6.74959715,9.38989474 6.66454721,9.96631579 C6.62396501,10.2404211 6.69088247,10.4846316 6.85882371,10.6732632 C7.00992765,10.8425263 7.23744701,10.9566316 7.49993614,10.9936842 C7.56599015,11.0029474 7.6294538,11.008 7.68989538,11.008 C8.21962262,11.008 8.45620822,10.6555789 8.68502276,10.3149474 C8.94017255,9.93347368 9.18193886,9.57305263 9.82477819,9.57305263 C9.91371365,9.57305263 10.0099885,9.58021053 10.1097171,9.59410526 C10.8712809,9.70105263 11.2516311,10.1406316 11.1536294,10.8 C11.0703064,11.3663158 10.5004287,11.68 9.89817154,12.0113684 C9.22165761,12.3835789 8.45448132,12.8054737 8.32669056,13.6690526 C8.29085734,13.9098947 8.3409375,14.1608421 8.46484273,14.3566316 C8.56629823,14.5174737 8.76489198,14.72 9.1370394,14.7726316 C9.21475,14.7831579 9.28857507,14.7890526 9.3567877,14.7890526 L9.35721943,14.7890526 C9.88047079,14.7890526 10.0587734,14.4753684 10.2306002,14.1722105 C10.3044253,14.0421053 10.380409,13.9077895 10.4853183,13.7970526 C10.6308098,13.6416842 10.9261101,13.4934737 11.267605,13.3221053 C12.0835662,12.9128421 13.2013037,12.3511579 13.3843553,11.1141053 C13.5143047,10.2336842 13.2397272,9.46063158 12.5886851,8.87873684 Z" id="Path"></path>
                        <path d="M9.09084477,15.4509474 C9.033857,15.4429474 8.9764375,15.4383158 8.91944973,15.4383158 C8.3223733,15.4383158 7.80732473,15.8732632 7.72184307,16.4488421 C7.62729518,17.0917895 8.08621943,17.6905263 8.74546433,17.7835789 C8.80245211,17.792 8.86030333,17.7953684 8.91685938,17.7953684 C9.51436753,17.7953684 10.0294161,17.3612632 10.114466,16.7856842 C10.2090139,16.1427368 9.75008967,15.5444211 9.09084477,15.4509474 Z" id="Path"></path>
                    </g>
                </g>
            </g>
        </g>
    </g>
</svg>