<?xml version="1.0" encoding="UTF-8"?>
<svg width="151px" height="82px" viewBox="0 0 151 82" version="1.1" xmlns="http://www.w3.org/2000/svg" xmlns:xlink="http://www.w3.org/1999/xlink">
    <!-- Generator: Sketch 53 (72520) - https://sketchapp.com -->
    <title>Group 4</title>
    <desc>Created with Sketch.</desc>
    <defs>
        <polygon id="path-1" points="0 20.0907475 61.8413381 0 18.2623541 55.9854718 5.08937187 50.7784828"></polygon>
        <polygon id="path-3" points="0 20.0907475 61.8413381 0 18.2623541 55.9854718 5.08937187 50.7784828"></polygon>
        <polygon id="path-5" points="0 20.0907475 61.8413381 0 18.2623541 55.9854718 5.08937187 50.7784828"></polygon>
        <polygon id="path-7" points="0 20.0907475 61.8413381 0 18.2623541 55.9854718 5.08937187 50.7784828"></polygon>
        <polygon id="path-9" points="0 20.0907475 61.8413381 0 18.2623541 55.9854718 5.08937187 50.7784828"></polygon>
        <polygon id="path-11" points="0 20.0907475 61.8413381 0 18.2623541 55.9854718 5.08937187 50.7784828"></polygon>
        <polygon id="path-13" points="0 20.0907475 61.8413381 0 18.2623541 55.9854718 5.08937187 50.7784828"></polygon>
        <polygon id="path-15" points="0 20.0907475 61.8413381 0 18.2623541 55.9854718 5.08937187 50.7784828"></polygon>
        <polygon id="path-17" points="0 20.0907475 61.8413381 0 18.2623541 55.9854718 5.08937187 50.7784828"></polygon>
    </defs>
    <g id="Page-3" stroke="none" stroke-width="1" fill="none" fill-rule="evenodd">
        <g id="Artboard" transform="translate(-124.000000, -1500.000000)">
            <g id="Group-4" transform="translate(124.000000, 1500.000000)">
                <g id="ROMBuilding">
                    <g id="Path-22" transform="translate(70.000000, 0.000000)">
                        <g id="Mask" opacity="0.662527902" fill="#C9C9D5" fill-rule="nonzero">
                            <polygon id="path-1" points="0 20.0907475 61.8413381 0 18.2623541 55.9854718 5.08937187 50.7784828"></polygon>
                        </g>
                        <g id="Clipped">
                            <mask id="mask-2" fill="white">
                                <use xlink:href="#path-1"></use>
                            </mask>
                            <use id="path-1" fill="#4A4A4A" xlink:href="#path-1"></use>
                            <polygon id="Path" fill="#B0B0B7" fill-rule="nonzero" mask="url(#mask-2)" points="0 20.0907475 61.8413381 0 18.2623541 55.9854718 5.08937187 50.7784828"></polygon>
                        </g>
                        <g id="Path-31-Clipped">
                            <mask id="mask-4" fill="white">
                                <use xlink:href="#path-3"></use>
                            </mask>
                            <g id="path-1"></g>
                            <polygon id="Path-31" fill-rule="nonzero" mask="url(#mask-4)" points="19.0078401 55.0118825 14.164794 41.870584 22.9716204 32.7242798 29.2598295 41.870584"></polygon>
                        </g>
                        <g id="Path-32-Clipped">
                            <mask id="mask-6" fill="white">
                                <use xlink:href="#path-5"></use>
                            </mask>
                            <g id="path-1"></g>
                            <polygon id="Path-32" stroke="#96A2B0" fill="#96A2B0" fill-rule="nonzero" mask="url(#mask-6)" points="29.4906367 26.2100102 35.9596995 33.7533538 44.222051 23.8191458 36.6826978 18.6666667"></polygon>
                        </g>
                        <g id="Line-Clipped">
                            <mask id="mask-8" fill="white">
                                <use xlink:href="#path-7"></use>
                            </mask>
                            <g id="path-1"></g>
                            <path d="M5.91425264,50.1400754 L54.918347,1.38271605" id="Line" stroke="#96A2B0" stroke-width="12" fill="#96A2B0" fill-rule="nonzero" stroke-linecap="square" mask="url(#mask-8)"></path>
                        </g>
                        <g id="Line-Clipped">
                            <mask id="mask-10" fill="white">
                                <use xlink:href="#path-9"></use>
                            </mask>
                            <g id="path-1"></g>
                            <path d="M5.91425264,50.1400754 L54.918347,1.38271605" id="Line" stroke="#96A2B0" stroke-width="12" fill="#96A2B0" fill-rule="nonzero" stroke-linecap="square" mask="url(#mask-10)"></path>
                        </g>
                        <g id="Line-Clipped">
                            <mask id="mask-12" fill="white">
                                <use xlink:href="#path-11"></use>
                            </mask>
                            <g id="path-1"></g>
                            <path d="M-13.9325843,45.9690701 L43.494432,4.28547409 L-13.9325843,45.9690701 Z" id="Line" stroke="#96A2B0" stroke-width="12" fill="#96A2B0" fill-rule="nonzero" stroke-linecap="square" mask="url(#mask-12)"></path>
                        </g>
                        <g id="Line-Clipped">
                            <mask id="mask-14" fill="white">
                                <use xlink:href="#path-13"></use>
                            </mask>
                            <g id="path-1"></g>
                            <path d="M33.8719656,56.5344483 L3.48314607,-5.30041152 L33.8719656,56.5344483 Z" id="Line" stroke="#96A2B0" stroke-width="12" fill="#96A2B0" fill-rule="nonzero" stroke-linecap="square" mask="url(#mask-14)"></path>
                        </g>
                        <g id="Line-Clipped">
                            <mask id="mask-16" fill="white">
                                <use xlink:href="#path-15"></use>
                            </mask>
                            <use id="path-1" fill="#4A4A4A" xlink:href="#path-15"></use>
                            <path d="M51.6895607,48.9326525 L4.41198502,-1.38271605 L51.6895607,48.9326525 Z" id="Line" stroke="#96A2B0" stroke-width="12" fill="#96A2B0" fill-rule="nonzero" stroke-linecap="square" mask="url(#mask-16)"></path>
                        </g>
                        <g id="Line-Clipped">
                            <mask id="mask-18" fill="white">
                                <use xlink:href="#path-17"></use>
                            </mask>
                            <use id="path-1" fill="#4A4A4A" xlink:href="#path-17"></use>
                            <path d="M21.977698,57.3367414 L-5.10861423,-5.99176955 L21.977698,57.3367414 Z" id="Line" fill-rule="nonzero" mask="url(#mask-18)"></path>
                        </g>
                    </g>
                    <polygon id="Path-25" fill="#4A4A4A" fill-rule="nonzero" points="124.831295 28.9514188 135 27 124.915075 76.659858 101 79"></polygon>
                    <path d="M131,1 L125.275058,28.9906563 L102.017479,78.8549065 C98.2685417,79.1381343 95.3521784,79.3418738 93.2683892,79.4661248 C91.1845999,79.5903758 87.7618035,79.7683344 83,80 L86.4586753,55.1688187 L131,1 Z" id="Path-24" fill="#4A4A4A" fill-rule="nonzero"></path>
                    <polygon id="Path-23" fill="#4A4A4A" fill-rule="nonzero" points="88 54.1358078 85.2443013 79 73 49"></polygon>
                    <polygon id="Path-20" fill="#4A4A4A" fill-rule="nonzero" points="0 79.3888339 35 82 35 15 23.855047 25.1153841 23.855047 29.0164028 4.8217648 42.6164874 4.8217648 38.6756194 0 41.5825078"></polygon>
                    <polygon id="Path-21" fill="#4A4A4A" fill-rule="nonzero" points="35 15 46.5084992 17.5947642 46.5084992 14 63.7623911 14 78.3592735 24.8166402 78.3592735 28.1171451 86 30.1477436 86 34.967545 75.3271565 50.1010328 86 79.9276628 35 82"></polygon>
                    <polygon id="Path-26" fill="#4A4A4A" fill-rule="nonzero" points="131.575467 42 151 60.013743 149.50507 74.1702712 124 77"></polygon>
                    <polygon id="Path-28" fill="#4A4A4A" fill-rule="nonzero" points="86.1700273 69.8643357 98 55 94.6136516 79.5139842 85 80"></polygon>
                    <polygon id="Path-29" fill="#4A4A4A" fill-rule="nonzero" points="99 61.6854095 101.295091 74 129 4 113.734105 23.0311504"></polygon>
                    <polygon id="Path-30" fill="#4A4A4A" fill-rule="nonzero" points="25 42.1882428 25 55 29 55 29 40"></polygon>
                    <path d="M53,43.5208166 L53,62 L68,62 L67.605108,44.2113797 C68.141643,38.4589124 65.841592,35.3990047 60.7049552,35.0316566 C55.5683184,34.6643088 53,37.4940286 53,43.5208166 Z" id="Path-30" fill="#4A4A4A" fill-rule="nonzero"></path>
                    <polygon id="Path-30" fill="#4A4A4A" fill-rule="nonzero" points="19 46.7505944 19 57 23 57 23 45"></polygon>
                    <polygon id="Path-30" fill="#4A4A4A" fill-rule="nonzero" points="25 42.8964771 25 54 28 54 28 41"></polygon>
                    <polygon id="Path-30" fill="#4A4A4A" fill-rule="nonzero" points="19 47.6047114 19 57 22 57 22 46"></polygon>
                    <polygon id="Path-58" fill="#4A4A4A" fill-rule="nonzero" points="26 43.2346581 27.8604476 42 28 47 27.5778221 43.5108511"></polygon>
                    <polygon id="Path-58" fill="#4A4A4A" fill-rule="nonzero" points="20 48.2346581 21.8604475 47 22 52 21.577822 48.5108511"></polygon>
                    <path d="M55.2297445,62 L69,62 L69,46.2843593 C69,38.7614532 66.6666666,35 62.0000001,35 C57.3333334,35 55,38.0395545 55,44.1186635 L55.2297445,62 Z" id="Path-27" fill="#4A4A4A" fill-rule="nonzero"></path>
                    <polygon id="Path-58" fill="#4A4A4A" fill-rule="nonzero" points="63 45 66.8436156 45 67 50 65.3199427 46.2346581"></polygon>
                    <polygon id="Path-58" fill="#4A4A4A" fill-rule="nonzero" points="58 52 61.8436156 52 62 57 60.3199427 53.2346581"></polygon>
                    <polygon id="Path-58" fill="#4A4A4A" fill-rule="nonzero" points="63 52 66.8436156 52 67 57 65.3199427 53.2346581"></polygon>
                    <polygon id="Path-58" fill="#4A4A4A" fill-rule="nonzero" points="58 45 61.8436156 45 62 50 60.3199427 46.2346581"></polygon>
                </g>
                <g id="quiz" transform="translate(46.000000, 30.000000)" fill="#ECECEC" fill-rule="nonzero">
                    <g id="Group">
                        <path d="M43.5570217,23.8406667 C43.4512174,23.8406667 43.3433913,23.8473333 43.237587,23.862 C41.9086304,24.038 40.9718913,25.2493333 41.1484565,26.564 C41.3088478,27.754 42.346,28.6513333 43.5603913,28.6513333 C43.6668696,28.6513333 43.7740217,28.6446667 43.8805,28.6306667 C45.2087826,28.4546667 46.1455217,27.2433333 45.9696304,25.928 C45.8085652,24.738 44.771413,23.8406667 43.5570217,23.8406667 Z" id="Path"></path>
                        <path d="M46.8908696,9.38866667 C45.8065435,8.68 44.3751522,8.30533333 42.749,8.30533333 C42.2711957,8.30533333 41.779913,8.338 41.2893043,8.40266667 C39.6665217,8.61666667 38.0922609,9.394 36.9695217,10.534 C35.8312826,11.6913333 35.278,13.104 35.4545652,14.4093333 C35.5839565,15.3726667 36.3171739,15.9953333 37.3219783,15.9953333 C37.4298043,15.9953333 37.5396522,15.9873333 37.6495,15.9733333 C38.9919348,15.796 39.2817174,14.8813333 39.5607174,13.9973333 C39.8794783,12.9893333 40.1800435,12.038 41.9146957,11.8086667 C42.0926087,11.7853333 42.2658043,11.7733333 42.4302391,11.7733333 C43.679,11.7733333 44.454,12.4253333 44.6137174,13.6093333 C44.7700652,14.768 43.8441087,15.692 42.8635652,16.67 C41.7630652,17.768 40.5156522,19.012 40.7535435,20.7766667 C40.8148696,21.2313333 41.0177174,21.6553333 41.3236739,21.9706667 C41.6747826,22.3326667 42.1343913,22.524 42.6526304,22.524 C42.7476522,22.524 42.8460435,22.518 42.9437609,22.5046667 C44.3481957,22.3193333 44.539587,21.5133333 44.7242391,20.7326667 C44.7943261,20.438 44.8671087,20.1326667 45.0072826,19.858 C45.2020435,19.474 45.6892826,19.0233333 46.2546957,18.502 C47.6038696,17.2546667 49.4510652,15.5466667 49.1093913,13.0166667 C48.8957609,11.432 48.1483913,10.2113333 46.8908696,9.38866667 Z" id="Path"></path>
                        <path d="M61.9737174,30.404 L58.2112609,2.51066667 C58.0178478,1.08 56.7724565,0 55.3134348,0 C55.1847174,0 55.0533043,0.00866666667 54.924587,0.026 L26.7287391,3.748 C25.1302174,3.95933333 24.0034348,5.41733333 24.2163913,6.99933333 L24.4313696,8.59533333 L5.93852174,5.952 C5.83069565,5.93666667 5.72084783,5.92866667 5.61234783,5.92866667 C4.49297826,5.92866667 3.5286087,6.756 3.36754348,7.85266667 L0.212282609,29.4586667 C0.126021739,30.0526667 0.278326087,30.6433333 0.640891304,31.124 C1.00413043,31.604 1.53382609,31.916 2.13428261,32.0013333 L23.9744565,35.1226667 C24.0829565,35.1373333 24.1928043,35.1446667 24.3006304,35.1446667 C25.42,35.1446667 26.3843696,34.3186667 26.5447609,33.2213333 L27.1728478,28.9193333 L27.9781739,34.8906667 C28.171587,36.3226667 29.4169783,37.402 30.8753261,37.402 C31.0047174,37.402 31.1361304,37.394 31.2648478,37.3773333 L59.4613696,33.654 C60.2343478,33.5526667 60.923087,33.158 61.3975217,32.544 C61.8733043,31.9306667 62.0768261,31.17 61.9737174,30.404 Z M24.6807174,32.956 C24.6510652,33.1606667 24.4556304,33.3086667 24.2446957,33.278 L2.40384783,30.1566667 C2.26569565,30.1373333 2.18617391,30.0553333 2.15045652,30.008 C2.11473913,29.9606667 2.05813043,29.8606667 2.07767391,29.7246667 L5.23293478,8.11866667 C5.26056522,7.93266667 5.42365217,7.792 5.61234783,7.792 C5.63121739,7.792 5.65076087,7.79333333 5.66895652,7.796 L24.6908261,10.514 L26.2596957,22.1433333 L24.6807174,32.956 Z M59.4687826,31.0846667 C59.4222826,31.1453333 59.3171522,31.25 59.139913,31.2733333 L30.9440652,34.996 C30.6711304,35.0333333 30.4224565,34.8393333 30.3860652,34.574 L26.6236087,6.68133333 C26.5872174,6.41266667 26.7786087,6.16533333 27.0501957,6.12933333 L55.2453696,2.40666667 C55.2689565,2.404 55.2905217,2.40266667 55.3141087,2.40266667 C55.5607609,2.40266667 55.7723696,2.586 55.8047174,2.82933333 L59.5685217,30.7226667 C59.5907609,30.898 59.5146087,31.0246667 59.4687826,31.0846667 Z" id="Shape"></path>
                        <path d="M19.6506304,14.058 C18.7853261,13.274 17.5035435,12.7266667 16.0425,12.518 C15.7756304,12.4793333 15.5013478,12.46 15.228413,12.46 C14.0807391,12.46 12.9526087,12.7933333 12.0495652,13.3986667 C11.121587,14.0213333 10.5359565,14.8673333 10.4031957,15.78 C10.3398478,16.214 10.4443043,16.6006667 10.7064565,16.8993333 C10.9423261,17.1673333 11.2974783,17.348 11.7072174,17.4066667 C11.8103261,17.4213333 11.9093913,17.4293333 12.0037391,17.4293333 C12.8306304,17.4293333 13.1999348,16.8713333 13.5571087,16.332 C13.9553913,15.728 14.3327826,15.1573333 15.3362391,15.1573333 C15.4750652,15.1573333 15.6253478,15.1686667 15.7810217,15.1906667 C16.9698043,15.36 17.5635217,16.056 17.4105435,17.1 C17.2804783,17.9966667 16.390913,18.4933333 15.4508043,19.018 C14.3947826,19.6073333 13.1972391,20.2753333 12.9977609,21.6426667 C12.9418261,22.024 13.02,22.4213333 13.213413,22.7313333 C13.3717826,22.986 13.6817826,23.3066667 14.2626957,23.39 C14.384,23.4066667 14.4992391,23.416 14.6057174,23.416 L14.6063913,23.416 C15.4231739,23.416 15.7015,22.9193333 15.9697174,22.4393333 C16.0849565,22.2333333 16.2035652,22.0206667 16.3673261,21.8453333 C16.5944348,21.5993333 17.0553913,21.3646667 17.5884565,21.0933333 C18.8621522,20.4453333 20.606913,19.556 20.8926522,17.5973333 C21.0955,16.2033333 20.6668913,14.9793333 19.6506304,14.058 Z" id="Path"></path>
                        <path d="M14.190587,24.464 C14.1016304,24.4513333 14.012,24.444 13.9230435,24.444 C12.9910217,24.444 12.1870435,25.1326667 12.0536087,26.044 C11.9060217,27.062 12.6223913,28.01 13.6514565,28.1573333 C13.740413,28.1706667 13.8307174,28.176 13.919,28.176 C14.8516957,28.176 15.6556739,27.4886667 15.7884348,26.5773333 C15.9360217,25.5593333 15.2196522,24.612 14.190587,24.464 Z" id="Path"></path>
                    </g>
                </g>
            </g>
        </g>
    </g>
</svg>