<?xml version="1.0" encoding="UTF-8"?>
<svg width="96px" height="96px" viewBox="0 0 96 96" version="1.1" xmlns="http://www.w3.org/2000/svg" xmlns:xlink="http://www.w3.org/1999/xlink">
    <!-- Generator: Sketch 53 (72520) - https://sketchapp.com -->
    <title>noun_Location_2512640</title>
    <desc>Created with Sketch.</desc>
    <g id="Page-3" stroke="none" stroke-width="1" fill="none" fill-rule="evenodd">
        <g id="Artboard" transform="translate(-458.000000, -1814.000000)" fill-rule="nonzero">
            <g id="noun_Location_2512640" transform="translate(458.000000, 1814.000000)">
                <g id="Group" fill="#4A4A4A">
                    <path d="M95.7225148,88.2704516 L88.0721565,65.28 L86.66288,65.8745806 C86.66288,65.8745806 86.4615548,66.0727742 86.4615548,66.0727742 L58.88,76.9734194 L58.88,94.0180645 L58.88,96 L89.8840835,96 C91.8973356,96 93.5079374,95.2072258 94.7158887,93.6216774 C95.92384,92.036129 96.3264904,90.0541935 95.7225148,88.2704516 Z" id="Path"></path>
                    <path d="M41.634205,83.3745455 L4.6182037,83.3745455 L1.81699279,83.3745455 L0.416387338,88.0581818 C-0.383958635,89.8909091 0.0162143511,91.9272727 1.21673331,93.5563636 C2.21716578,95.1854545 4.01794422,96 6.01880915,96 L55.04,96 L55.04,93.9636364 L55.04,78.08 L42.4345509,83.3745455 C42.2344644,83.3745455 42.0343779,83.3745455 41.634205,83.3745455 Z" id="Path"></path>
                    <path d="M23.5323077,44.8 L17.8215385,44.8 C15.2615385,44.8 13.0953846,46.4168421 12.3076923,49.0442105 L6.4,67.84 L32,58.1389474 C29.0461538,53.8947368 26.0923077,49.4484211 23.5323077,44.8 Z" id="Path"></path>
                    <path d="M40.3480478,79.36 L52.48,74.253617 L49.894502,71.5982979 C49.0989641,72.0068085 48.1045418,72.2110638 47.1101195,72.2110638 C45.3201594,72.2110638 43.7290837,71.3940426 42.5357769,70.1685106 C41.1435857,68.5344681 38.1603187,64.8578723 34.7792829,60.16 L8.72541833,70.1685106 C8.52653386,70.1685106 8.3276494,70.372766 8.12876494,70.372766 C8.12876494,70.372766 8.12876494,70.372766 8.12876494,70.372766 L4.94661355,71.5982979 L2.56,79.36 L3.95219124,79.36 L40.3480478,79.36 Z" id="Path"></path>
                    <path d="M62.72,57.0647273 L72.5661538,66.56 L85.76,61.2189091 L81.8215385,48.9541818 C81.0338462,46.5803636 78.8676923,44.8 76.3076923,44.8 L70.5969231,44.8 C68.2338462,48.9541818 65.4769231,53.3061818 62.72,57.0647273 Z" id="Path"></path>
                    <path d="M60.8492308,60.16 C57.8953846,64.16 55.3353846,67.36 53.76,69.36 L57.5015385,72.96 L69.12,68.16 L60.8492308,60.16 Z" id="Path"></path>
                    <path d="M48,69.12 C48.6055385,69.12 49.2110769,68.9190698 49.6147692,68.5172093 C50.624,67.3116279 74.24,39.9851163 74.24,26.1209302 C74.24,11.8548837 62.5329231,0 48,0 C33.4670769,0 21.76,11.6539535 21.76,26.1209302 C21.76,39.9851163 45.376,67.3116279 46.3852308,68.5172093 C46.7889231,68.9190698 47.3944615,69.12 48,69.12 Z" id="Shape"></path>
                </g>
                <g id="quiz" transform="translate(30.000000, 14.000000)" fill="#ECECEC">
                    <g id="Group">
                        <path d="M26.5085312,15.0572632 C26.4441393,15.0572632 26.3785171,15.0614737 26.3141252,15.0707368 C25.5053306,15.1818947 24.935237,15.9469474 25.0426935,16.7772632 C25.1403066,17.5288421 25.7715109,18.0955789 26.5105819,18.0955789 C26.5753839,18.0955789 26.640596,18.0913684 26.705398,18.0825263 C27.5137825,17.9713684 28.0838761,17.2063158 27.9768298,16.3755789 C27.8788065,15.624 27.2476022,15.0572632 26.5085312,15.0572632 Z" id="Path"></path>
                        <path d="M28.5374901,5.92968421 C27.8775761,5.48210526 27.0064403,5.24547368 26.0167742,5.24547368 C25.7259855,5.24547368 25.426994,5.26610526 25.1284126,5.30694737 C24.1407972,5.44210526 23.1827119,5.93305263 22.4994199,6.65305263 C21.8066947,7.384 21.4699703,8.27621053 21.5774268,9.10063158 C21.6561735,9.70905263 22.1024051,10.1023158 22.7139227,10.1023158 C22.779545,10.1023158 22.8463977,10.0972632 22.9132504,10.0884211 C23.7302478,9.97642105 23.9066077,9.39873684 24.0764053,8.84042105 C24.2704012,8.20378947 24.4533233,7.60294737 25.5090218,7.45810526 C25.6172986,7.44336842 25.7227044,7.43578947 25.8227783,7.43578947 C26.5827664,7.43578947 27.0544266,7.84757895 27.1516296,8.59536842 C27.2467819,9.32715789 26.6832505,9.91073684 26.0864979,10.5284211 C25.4167405,11.2218947 24.6575727,12.0075789 24.8023519,13.1221053 C24.8396745,13.4092632 24.9631264,13.6770526 25.1493297,13.8762105 C25.3630122,14.1048421 25.6427272,14.2256842 25.9581243,14.2256842 C26.0159539,14.2256842 26.0758343,14.2218947 26.1353045,14.2134737 C26.9900347,14.0964211 27.1065142,13.5873684 27.2188924,13.0943158 C27.2615469,12.9082105 27.3058419,12.7153684 27.3911509,12.5418947 C27.5096811,12.2993684 27.8062118,12.0147368 28.1503187,11.6854737 C28.9714175,10.8976842 30.0956092,9.81894737 29.8876686,8.22105263 C29.7576545,7.22021053 29.30281,6.44926316 28.5374901,5.92968421 Z" id="Path"></path>
                        <path d="M37.7168171,19.2025263 L35.4270095,1.58568421 C35.3092996,0.682105263 34.5513622,0 33.6634107,0 C33.5850741,0 33.5050969,0.00547368421 33.4267603,0.0164210526 L16.2669436,2.36715789 C15.2940932,2.50063158 14.6083404,3.42147368 14.7379444,4.42063158 L14.8687788,5.42863158 L3.61414721,3.75915789 C3.54852493,3.74947368 3.48167223,3.74442105 3.41563981,3.74442105 C2.73439849,3.74442105 2.1474892,4.26694737 2.04946591,4.95957895 L0.129193869,18.6054737 C0.0766960428,18.9806316 0.169387517,19.3536842 0.390042442,19.6572632 C0.611107507,19.9604211 0.93347697,20.1574737 1.29891106,20.2113684 L14.5907044,22.1827368 C14.6567368,22.192 14.7235895,22.1966316 14.7892118,22.1966316 C15.4704531,22.1966316 16.0573624,21.6749474 16.1549756,20.9818947 L16.5372254,18.2648421 L17.0273418,22.0362105 C17.1450517,22.9406316 17.9029891,23.6223158 18.7905305,23.6223158 C18.8692772,23.6223158 18.9492544,23.6172632 19.027591,23.6067368 L36.1878179,21.2551579 C36.6582476,21.1911579 37.07741,20.9418947 37.366148,20.5541053 C37.6557063,20.1667368 37.7795684,19.6863158 37.7168171,19.2025263 Z M15.0205303,20.8143158 C15.0024842,20.9435789 14.8835438,21.0370526 14.7551702,21.0176842 L1.46296676,19.0463158 C1.37888821,19.0341053 1.33049178,18.9823158 1.3087544,18.9524211 C1.28701702,18.9225263 1.25256532,18.8593684 1.26445936,18.7734737 L3.1847314,5.12757895 C3.20154711,5.01010526 3.30080082,4.92126316 3.41563981,4.92126316 C3.42712371,4.92126316 3.43901775,4.92210526 3.45009151,4.92378947 L15.0266824,6.64042105 L15.9814867,13.9852632 L15.0205303,20.8143158 Z M36.1923294,19.6324211 C36.1640298,19.6707368 36.1000481,19.7368421 35.9921815,19.7515789 L18.8323647,22.1027368 C18.6662583,22.1263158 18.5149169,22.0037895 18.4927694,21.8362105 L16.2029619,4.21978947 C16.1808143,4.05010526 16.2972939,3.89389474 16.46258,3.87115789 L33.6219866,1.52 C33.6363415,1.51831579 33.649466,1.51747368 33.6638208,1.51747368 C33.8139318,1.51747368 33.9427155,1.63326316 33.9624022,1.78694737 L36.25303,19.4037895 C36.2665646,19.5145263 36.2202189,19.5945263 36.1923294,19.6324211 Z" id="Shape"></path>
                        <path d="M11.9592509,8.87873684 C11.432632,8.38357895 10.6525472,8.03789474 9.76336523,7.90610526 C9.60095008,7.88168421 9.4340234,7.86947368 9.267917,7.86947368 C8.56944983,7.86947368 7.8828767,8.08 7.33329008,8.46231579 C6.76852831,8.85557895 6.41211729,9.38989474 6.33131985,9.96631579 C6.29276676,10.2404211 6.35633835,10.4846316 6.51588252,10.6732632 C6.65943127,10.8425263 6.87557466,10.9566316 7.12493933,10.9936842 C7.18769064,11.0029474 7.24798111,11.008 7.30540061,11.008 C7.80864149,11.008 8.03339781,10.6555789 8.25077162,10.3149474 C8.49316393,9.93347368 8.72284192,9.57305263 9.33353928,9.57305263 C9.41802797,9.57305263 9.50948903,9.58021053 9.6042312,9.59410526 C10.3277169,9.70105263 10.6890496,10.1406316 10.5959479,10.8 C10.5167911,11.3663158 9.97540724,11.68 9.40326296,12.0113684 C8.76057473,12.3835789 8.03175725,12.8054737 7.91035603,13.6690526 C7.87631447,13.9098947 7.92389062,14.1608421 8.04160059,14.3566316 C8.13798332,14.5174737 8.32664738,14.72 8.68018743,14.7726316 C8.7540125,14.7831579 8.82414631,14.7890526 8.88894832,14.7890526 L8.88935846,14.7890526 C9.38644725,14.7890526 9.55583477,14.4753684 9.71907019,14.1722105 C9.78920401,14.0421053 9.86138852,13.9077895 9.96105236,13.7970526 C10.0992693,13.6416842 10.3798046,13.4934737 10.7042247,13.3221053 C11.4793879,12.9128421 12.5412385,12.3511579 12.7151375,11.1141053 C12.8385895,10.2336842 12.5777409,9.46063158 11.9592509,8.87873684 Z" id="Path"></path>
                        <path d="M8.63630253,15.4509474 C8.58216415,15.4429474 8.52761562,15.4383158 8.47347724,15.4383158 C7.90625464,15.4383158 7.41695849,15.8732632 7.33575092,16.4488421 C7.24593042,17.0917895 7.68190846,17.6905263 8.30819112,17.7835789 C8.3623295,17.792 8.41728816,17.7953684 8.47101641,17.7953684 C9.03864915,17.7953684 9.5279453,17.3612632 9.60874273,16.7856842 C9.69856323,16.1427368 9.26258519,15.5444211 8.63630253,15.4509474 Z" id="Path"></path>
                    </g>
                </g>
            </g>
        </g>
    </g>
</svg>