<?xml version="1.0" encoding="UTF-8"?>
<svg width="94px" height="117px" viewBox="0 0 94 117" version="1.1" xmlns="http://www.w3.org/2000/svg" xmlns:xlink="http://www.w3.org/1999/xlink">
    <!-- Generator: Sketch 53 (72520) - https://sketchapp.com -->
    <title>Group 3</title>
    <desc>Created with Sketch.</desc>
    <g id="Page-3" stroke="none" stroke-width="1" fill="none" fill-rule="evenodd">
        <g id="Artboard" transform="translate(-769.000000, -1461.000000)">
            <g id="Group-3" transform="translate(769.000000, 1461.000000)">
                <path d="M10.5,57.8906944 L77.0650613,57.8906944 C77.3320112,57.8906944 77.5941249,57.819454 77.8243481,57.6843263 L90.7407132,50.1031704 C91.4551664,49.6838279 92.3742894,49.9230624 92.7936319,50.6375155 C92.9287596,50.8677388 93,51.1298525 93,51.3968023 L93,100.542491 C93,100.935053 92.8461073,101.311972 92.5713503,101.592352 L77.9138593,116.549861 C77.6317315,116.837764 77.2456019,117 76.8425089,117 L10.5,117 C9.67157288,117 9,116.328427 9,115.5 L9,59.3906944 C9,58.5622672 9.67157288,57.8906944 10.5,57.8906944 Z" id="Path-5" fill="#4A4A4A"></path>
                <g id="quiz" transform="translate(17.000000, 70.000000)" fill="#ECECEC" fill-rule="nonzero">
                    <g id="Group">
                        <path d="M39.0652039,21.3311228 C38.9703106,21.3311228 38.8736041,21.3370877 38.7787108,21.3502105 C37.5868029,21.5076842 36.746665,22.5915088 36.9050219,23.7677895 C37.0488729,24.8325263 37.9790688,25.6354035 39.068226,25.6354035 C39.1637236,25.6354035 39.2598257,25.6294386 39.3553234,25.6169123 C40.5466269,25.4594386 41.3867648,24.375614 41.2290123,23.1987368 C41.0845569,22.134 40.1543611,21.3311228 39.0652039,21.3311228 Z" id="Path"></path>
                        <path d="M42.0552486,8.40038596 C41.0827437,7.76631579 39.7989646,7.43108772 38.3405094,7.43108772 C37.9119786,7.43108772 37.4713595,7.46031579 37.0313448,7.51817544 C35.5759117,7.70964912 34.1639965,8.40515789 33.1570398,9.42515789 C32.1361816,10.4606667 31.6399563,11.7246316 31.7983132,12.8925614 C31.914361,13.7544912 32.5719654,14.311614 33.4731493,14.311614 C33.5698558,14.311614 33.6683755,14.3044561 33.7668953,14.2919298 C34.9708915,14.1332632 35.2307903,13.3148772 35.4810184,12.5239298 C35.7669071,11.6220351 36.0364765,10.7708421 37.5922427,10.5656491 C37.7518084,10.5447719 37.9071433,10.5340351 38.0546207,10.5340351 C39.1746031,10.5340351 39.8696813,11.1174035 40.0129278,12.1767719 C40.1531522,13.2134737 39.322685,14.0402105 38.4432601,14.9152632 C37.4562491,15.8976842 36.3374755,17.0107368 36.5508343,18.5896491 C36.6058361,18.9964561 36.7877653,19.3758246 37.06217,19.6579649 C37.3770707,19.9818596 37.7892822,20.1530526 38.2540779,20.1530526 C38.3393005,20.1530526 38.4275452,20.1476842 38.5151855,20.1357544 C39.774788,19.9699298 39.9464421,19.2487719 40.112052,18.5502807 C40.1749112,18.2866316 40.2401881,18.0134386 40.3659066,17.7676842 C40.5405827,17.4241053 40.9775753,17.0208772 41.4846802,16.5544211 C42.6947205,15.438386 44.3514241,13.9101754 44.0449853,11.6464912 C43.8533855,10.2286316 43.1830885,9.13645614 42.0552486,8.40038596 Z" id="Path"></path>
                        <path d="M55.5826778,27.2035789 L52.2082246,2.24638596 C52.0347573,0.966315789 50.9177969,0 49.6092368,0 C49.4937934,0 49.3759323,0.00775438596 49.2604889,0.0232631579 L23.9723379,3.35347368 C22.5386637,3.5425614 21.5280806,4.84708772 21.719076,6.2625614 L21.9118846,7.6905614 L5.32611168,5.32547368 C5.22940516,5.31175439 5.13088539,5.30459649 5.03357446,5.30459649 C4.02963988,5.30459649 3.16472092,6.04484211 3.02026556,7.02607018 L0.190390965,26.3577544 C0.113025747,26.8892281 0.249623709,27.4177193 0.574799389,27.8477895 C0.900579484,28.2772632 1.37565027,28.5564211 1.91418471,28.6327719 L21.5020907,31.4255439 C21.5994016,31.4386667 21.6979214,31.4452281 21.7946279,31.4452281 C22.7985625,31.4452281 23.6634815,30.7061754 23.8073324,29.7243509 L24.3706479,25.875193 L25.0929247,31.2179649 C25.2663921,32.4992281 26.3833524,33.4649474 27.6913081,33.4649474 C27.8073559,33.4649474 27.925217,33.4577895 28.0406604,33.4428772 L53.3294158,30.1114737 C54.0226807,30.020807 54.6403936,29.6676842 55.0659023,29.1183158 C55.4926198,28.5695439 55.6751534,27.8889474 55.5826778,27.2035789 Z M22.1355184,29.4869474 C22.1089241,29.6700702 21.9336435,29.8024912 21.7444614,29.7750526 L2.15595102,26.9822807 C2.03204579,26.9649825 1.96072473,26.891614 1.92869069,26.8492632 C1.89665666,26.8069123 1.84588573,26.7174386 1.86341379,26.5957544 L4.69328838,7.26407018 C4.71806943,7.09764912 4.86433804,6.97178947 5.03357446,6.97178947 C5.0504981,6.97178947 5.06802615,6.97298246 5.08434538,6.97536842 L22.1445846,9.40726316 L23.5516645,19.8124561 L22.1355184,29.4869474 Z M53.3360644,27.8125965 C53.2943597,27.8668772 53.2000709,27.9605263 53.0411095,27.9814035 L27.7529585,31.3122105 C27.5081701,31.345614 27.2851407,31.1720351 27.2525022,30.9346316 L23.878049,5.97803509 C23.8454106,5.73764912 24.0170647,5.51635088 24.2606442,5.48414035 L49.5481908,2.15333333 C49.5693454,2.15094737 49.5886867,2.14975439 49.6098412,2.14975439 C49.8310574,2.14975439 50.020844,2.31378947 50.0498559,2.53150877 L53.4255179,27.4887018 C53.4454637,27.6455789 53.3771647,27.7589123 53.3360644,27.8125965 Z" id="Shape"></path>
                        <path d="M17.6241592,12.5782105 C16.8480893,11.8767368 15.6984906,11.3870175 14.3881172,11.2003158 C14.1487685,11.1657193 13.9027713,11.1484211 13.6579829,11.1484211 C12.6286629,11.1484211 11.6168709,11.4466667 10.8069538,11.9882807 C9.9746733,12.5454035 9.44943601,13.3023509 9.3303661,14.1189474 C9.27355102,14.5072632 9.36723546,14.8532281 9.60235319,15.1204561 C9.81389871,15.3602456 10.1324258,15.5218947 10.4999106,15.574386 C10.5923862,15.5875088 10.6812353,15.5946667 10.7658535,15.5946667 C11.5074717,15.5946667 11.8386915,15.0954035 12.1590319,14.6128421 C12.5162416,14.0724211 12.8547144,13.5618246 13.7546895,13.5618246 C13.8791991,13.5618246 14.0139838,13.5719649 14.1536039,13.5916491 C15.2197933,13.7431579 15.7522836,14.3658947 15.6150812,15.3 C15.4984289,16.1022807 14.7006001,16.5466667 13.8574401,17.0161053 C12.9103207,17.5434035 11.8362738,18.1410877 11.6573668,19.3644912 C11.6072003,19.7056842 11.6773125,20.061193 11.8507798,20.3385614 C11.9928175,20.5664211 12.2708488,20.8533333 12.7918552,20.9278947 C12.90065,20.942807 13.0040051,20.9511579 13.0995028,20.9511579 L13.1001072,20.9511579 C13.8326591,20.9511579 14.0822828,20.5067719 14.3228403,20.0772982 C14.4261954,19.8929825 14.5325726,19.7027018 14.6794456,19.5458246 C14.8831337,19.3257193 15.2965541,19.1157544 15.7746469,18.8729825 C16.9169927,18.293193 18.4818251,17.4974737 18.7380974,15.7449825 C18.9200266,14.4977193 18.5356181,13.4025614 17.6241592,12.5782105 Z" id="Path"></path>
                        <path d="M12.7271827,21.8888421 C12.6473998,21.8775088 12.5670125,21.8709474 12.4872296,21.8709474 C11.6513226,21.8709474 10.9302546,22.4871228 10.8105803,23.3025263 C10.6782132,24.2133684 11.3207072,25.0615789 12.2436501,25.1934035 C12.3234329,25.2053333 12.4044247,25.2101053 12.4836031,25.2101053 C13.3201145,25.2101053 14.0411825,24.5951228 14.1602524,23.7797193 C14.2926195,22.8688772 13.6501255,22.0212632 12.7271827,21.8888421 Z" id="Path"></path>
                    </g>
                </g>
                <g id="noun_Surprise_2351547" fill-rule="nonzero">
                    <g id="Group">
                        <path d="M45.778,31.587931 L46.0681034,32.0946207 C46.2909482,32.4885788 46.1711254,32.9857833 45.7925862,33.2378793 C44.6812762,33.9707584 43.998598,35.1916617 43.9615491,36.5125102 C43.9245001,37.8333588 44.5376892,39.0898411 45.6062069,39.882569 L47.3808621,41.1973966 C47.7710194,41.4991748 47.8432685,42.0552927 47.542931,42.4448793 L45.611069,45.6886552 C45.2994879,46.1827108 45.2831427,46.8050616 45.5683693,47.3144599 C45.853596,47.8238581 46.3955513,48.1402164 46.984152,48.1409016 C47.5727526,48.1415868 48.115459,47.8264914 48.4018966,47.3177586 L50.2867586,44.1477414 C51.4973207,42.349912 51.0792055,39.9298184 49.3337931,38.6318793 L47.5510345,37.3170517 C47.3239414,37.1488899 47.1935155,36.8821063 47.2012487,36.6015716 C47.2089819,36.3210369 47.3539113,36.061683 47.589931,35.9060172 C49.2131327,34.8236027 49.8418943,32.7603058 49.093931,30.9706034 C52.1732414,28.7017241 59.9655172,22.0329828 59.9655172,12.8275862 C59.9655172,5.74310597 54.1606574,7.12074078e-16 47,0 C39.8393426,-7.12074078e-16 34.0344828,5.74310597 34.0344828,12.8275862 C34.0344828,23.1409655 43.8056207,30.2538621 45.778,31.587931 Z" id="Shape" fill="#4A4A4A"></path>
                        <path d="M47,9.62068966 C48.7901644,9.62068966 50.2413793,11.0564661 50.2413793,12.8275862 C50.2413793,13.7131462 50.9669868,14.4310345 51.862069,14.4310345 C52.7571511,14.4310345 53.4827586,13.7131462 53.4827586,12.8275862 C53.4827586,9.28534609 50.5803287,6.4137931 47,6.4137931 C46.1049178,6.4137931 45.3793103,7.13168135 45.3793103,8.01724138 C45.3793103,8.90280141 46.1049178,9.62068966 47,9.62068966 Z" id="Path" fill="#FFFFFF"></path>
                        <path d="M81.0425862,6.4137931 C71.7025517,6.4137931 67.4482414,14.5528966 67.4482414,22.1163621 C67.5529605,26.5365874 68.5908046,30.8863005 70.4951379,34.8862241 L70.4951379,35.4618621 C70.4913279,35.9123934 70.1389349,36.2847454 69.6847931,36.3181034 C68.3510537,36.4009843 67.1412242,37.1199853 66.4408194,38.2459952 C65.7404146,39.3720051 65.6368156,40.7645451 66.1630345,41.9798793 L67.0365862,44.0002241 C67.082755,44.1065978 67.1064699,44.2211823 67.1062759,44.3369483 C67.1079835,44.6664636 66.9191121,44.9679346 66.620069,45.1130172 C65.8465943,45.5196709 65.5396463,46.4607577 65.9269742,47.2380099 C66.3143022,48.0152622 67.2557396,48.3474072 68.0527586,47.988 C70.0104246,47.0305967 70.8712166,44.7269601 70.0137931,42.7399138 L69.137,40.7275862 C69.0893329,40.6198134 69.0639831,40.5036813 69.0624483,40.3860517 C69.0648315,39.9302182 69.4227931,39.5536676 69.8825172,39.5233966 C71.8489195,39.3868835 73.4420465,37.891362 73.6830345,35.9557241 C78.5548276,35.2758621 94,32.1266897 94,19.2542069 C93.9646424,12.1853023 88.1874336,6.4602593 81.0425862,6.4137931 Z" id="Shape" fill="#4A4A4A"></path>
                        <path d="M84.2758621,13.6886379 C83.5002734,13.245858 82.5087308,13.508964 82.0611897,14.2763018 C81.6136486,15.0436395 81.8795837,16.0246338 82.6551724,16.4674138 C83.6583271,17.0430934 84.2758115,18.1036426 84.2758621,19.251 C84.2757667,19.8106763 84.1265079,20.3604327 83.8431379,20.8448276 C83.4279937,21.6080583 83.701019,22.5595289 84.4595839,22.9930904 C85.2181488,23.426652 86.1876477,23.1853523 86.6485517,22.4482759 C88.4375282,19.3810423 87.3753868,15.4597649 84.2758621,13.6886379 Z" id="Path" fill="#FFFFFF"></path>
                        <path d="M21.8922759,42.7976379 C22.311452,43.044281 22.4498969,43.5799781 22.2018276,43.9954138 C21.939737,44.5369163 21.8045622,45.1299621 21.8063793,45.7303448 C21.8068887,47.7901393 23.361742,49.5253005 25.4286207,49.7726379 L27.6343793,50.0356034 C28.0950019,50.0984485 28.4290396,50.5015972 28.4009655,50.9607931 C28.3766375,51.3854265 28.5238264,51.8022261 28.8101448,52.1194792 C29.0964631,52.4367323 29.4984511,52.6284444 29.9276552,52.652431 L30.0200345,52.652431 C30.8802472,52.6538146 31.5916931,51.9900584 31.6407241,51.1403793 L31.6407241,50.8870345 C31.6379522,48.8292771 30.0847534,47.096562 28.0201034,46.8479483 L25.8143448,46.5849828 C25.3752594,46.5330336 25.0446706,46.1646473 25.0445172,45.7271379 C25.044461,45.5705292 25.0864053,45.4167097 25.166069,45.2813793 C25.4301607,44.7393639 25.5659538,44.1449401 25.5631379,43.5432414 C25.5528891,42.283914 24.9545938,41.1000531 23.9424483,40.3363448 C25.5804962,36.6029331 26.4678685,32.5896065 26.555,28.5205345 C26.5517586,20.9666897 22.2974483,12.8275862 12.9655172,12.8275862 C5.80720404,12.8452396 0.0106884878,18.585825 0,25.668 C0,39.7077931 18.3834828,42.1835172 21.3704138,42.4945862 L21.8922759,42.7976379 Z" id="Shape" fill="#4A4A4A"></path>
                        <path d="M12.9655172,19.2413793 C11.8277377,19.2413178 10.7099295,19.5371505 9.72413793,20.0992241 C8.94854924,20.5420042 8.68261412,21.5229984 9.1301552,22.2903362 C9.57769629,23.0576739 10.5692389,23.32078 11.3448276,22.878 C12.902174,22.0402587 14.8498748,22.5561877 15.7757931,24.0517241 C16.2366971,24.7888006 17.206196,25.0301002 17.9647609,24.5965387 C18.7233258,24.1629771 18.9963511,23.2115066 18.5812069,22.4482759 C17.4187765,20.4674941 15.2805862,19.2464588 12.9655172,19.2413793 L12.9655172,19.2413793 Z" id="Path" fill="#FFFFFF"></path>
                        <path d="M55.152069,42.905069 L53.5313793,49.3188621 C53.3150261,50.1778174 53.8431661,51.0477295 54.7112414,51.2622414 C54.8395538,51.2937809 54.9712358,51.3099314 55.1034483,51.3103448 C55.8466926,51.3094062 56.4940319,50.8084122 56.6738966,50.094931 L58.2945862,43.6811379 C58.4500809,43.1201406 58.2862803,42.5198245 57.8665602,42.1124571 C57.4468401,41.7050897 56.8370397,41.5545724 56.273096,41.7191416 C55.7091523,41.8837109 55.2795279,42.3375516 55.1504483,42.905069 L55.152069,42.905069 Z" id="Path" fill="#4A4A4A"></path>
                        <path d="M53.4827586,35.2758621 C53.4827586,37.9325422 55.659581,40.0862069 58.3448276,40.0862069 C61.0300741,40.0862069 63.2068966,37.9325422 63.2068966,35.2758621 C63.2068966,32.619182 61.0300741,30.4655172 58.3448276,30.4655172 C55.659581,30.4655172 53.4827586,32.619182 53.4827586,35.2758621 L53.4827586,35.2758621 Z" id="Shape" fill="#4A4A4A"></path>
                        <path d="M35.2629655,41.7377586 C34.3948902,41.9522705 33.8667503,42.8221826 34.0831034,43.6811379 L35.7037931,50.094931 C35.8838045,50.8089917 36.5320134,51.3101415 37.2758621,51.3103448 C37.4086169,51.3100603 37.5408509,51.2939088 37.6696897,51.2622414 C38.5377649,51.0477295 39.0659049,50.1778174 38.8495517,49.3188621 L37.2288621,42.905069 C37.1247577,42.4922756 36.8591035,42.1373378 36.4903881,41.918402 C36.1216728,41.6994661 35.680127,41.6344825 35.2629655,41.7377586 Z" id="Path" fill="#4A4A4A"></path>
                        <path d="M34.0344828,40.0862069 C36.7197293,40.0862069 38.8965517,37.9325422 38.8965517,35.2758621 C38.8965517,32.619182 36.7197293,30.4655172 34.0344828,30.4655172 C31.3492362,30.4655172 29.1724138,32.619182 29.1724138,35.2758621 C29.1724138,37.9325422 31.3492362,40.0862069 34.0344828,40.0862069 L34.0344828,40.0862069 Z" id="Shape" fill="#4A4A4A"></path>
                    </g>
                </g>
            </g>
        </g>
    </g>
</svg>