<?xml version="1.0" encoding="UTF-8"?>
<svg width="307px" height="267px" viewBox="0 0 307 267" version="1.1" xmlns="http://www.w3.org/2000/svg" xmlns:xlink="http://www.w3.org/1999/xlink">
    <!-- Generator: Sketch 53 (72520) - https://sketchapp.com -->
    <title>Group 2</title>
    <desc>Created with Sketch.</desc>
    <defs>
        <linearGradient x1="78.837132%" y1="83.7372273%" x2="43.3035613%" y2="38.9381182%" id="linearGradient-1">
            <stop stop-color="#CECBCB" offset="0%"></stop>
            <stop stop-color="#FAFAFA" offset="100%"></stop>
        </linearGradient>
    </defs>
    <g id="Rooms" stroke="none" stroke-width="1" fill="none" fill-rule="evenodd">
        <g id="Play-at-the-ROM" transform="translate(-629.000000, -443.000000)">
            <g id="Group-2" transform="translate(621.000000, 439.000000)">
                <g id="iPad">
                    <path d="M63.2353241,21.6660317 L9.83680561,161.860341 C4.52908137,175.795423 11.5229367,191.394799 25.4580187,196.702524 C25.6537705,196.777083 25.8503833,196.849363 26.0478172,196.919347 L229.200938,268.930627 C243.255768,273.912614 258.688157,266.557622 263.670145,252.502792 C263.847946,252.001191 264.010879,251.494443 264.158729,250.983212 L313.148898,81.586432 C317.291644,67.2617645 309.037566,52.2909676 294.712898,48.1482213 C294.113102,47.974758 293.507469,47.8221523 292.897092,47.6906795 L94.1523208,4.88186981 C81.1158827,2.07387443 67.981987,9.20397941 63.2353241,21.6660317 Z" id="Path-3" fill="url(#linearGradient-1)"></path>
                    <ellipse id="Oval" stroke="#979797" fill="#D8D8D8" transform="translate(262.726141, 165.275450) rotate(14.000000) translate(-262.726141, -165.275450) " cx="262.726141" cy="165.27545" rx="6.5" ry="10"></ellipse>
                    <ellipse id="Oval" fill="#D8D8D8" transform="translate(261.726141, 164.275450) rotate(14.000000) translate(-261.726141, -164.275450) " cx="261.726141" cy="164.27545" rx="6.5" ry="10"></ellipse>
                    <ellipse id="Oval" stroke="#979797" fill="#D8D8D8" transform="translate(260.666357, 164.394731) rotate(14.000000) translate(-260.666357, -164.394731) " cx="260.666357" cy="164.394731" rx="2" ry="3"></ellipse>
                    <polygon id="Path-3" fill="#525050" points="77.2430869 20 20 169.946956 225.150091 242.501092 277.189261 62.9698632"></polygon>
                </g>
                <g id="AR-Icon" transform="translate(144.423021, 141.803570) rotate(15.000000) translate(-144.423021, -141.803570) translate(86.923021, 80.803570)">
                    <path d="M19.4906492,47.6506132 C29.7327682,36.4632694 41.6875212,31.0424543 55.3549082,31.3881678 C68.9511501,31.7320816 80.7929048,37.1922958 90.8801723,47.7688103 L90.8801755,47.7688072 C93.8590571,50.8921688 93.8232574,55.8154495 90.7992702,58.8951613 C79.7082408,70.1905705 67.8529748,75.6786714 55.2334722,75.3594639 C42.6710939,75.0417014 30.866049,69.5192919 19.8183375,58.7922356 L19.8183353,58.7922378 C16.7140758,55.7780781 16.568901,50.8420037 19.4906492,47.6506132 Z" id="Path-6" stroke="#B7B6B6" stroke-width="5"></path>
                    <circle id="Oval" stroke="#B7B6B6" stroke-width="5" cx="55.6399901" cy="47.5344091" r="15.5"></circle>
                    <path d="M8.00609162,25.4489672 C8.00520302,25.4489671 8.00520302,25.4489671 8.00431443,25.4489677 C7.17588763,25.4496999 6.50490856,26.121866 6.50564072,26.9502928 L6.51643681,39.1657942 C6.51716837,39.993527 7.18825161,40.6642193 8.01598475,40.6644684 L8.80641372,40.6647063 C8.80730232,40.6647064 8.80730232,40.6647064 8.80819091,40.6647058 C9.63661771,40.6639736 10.3075968,39.9918075 10.3068646,39.1633807 L10.2960685,26.9478793 C10.295337,26.1201465 9.62425373,25.4494542 8.79652059,25.4492051 L8.00609162,25.4489672 Z" id="Rectangle" stroke="#B7B6B6" fill="#B7B6B6" transform="translate(8.406253, 33.056837) rotate(-49.000000) translate(-8.406253, -33.056837) "></path>
                    <path d="M11.8250705,1.93706654 C11.8242277,1.93706646 11.8242277,1.93706646 11.823385,1.93706701 C10.9949581,1.93776105 10.3239481,2.60989632 10.3246421,3.43832315 L10.3493908,32.9792302 C10.3500843,33.8069989 11.0211925,34.4777368 11.8489614,34.4779735 L12.6343232,34.4781981 C12.6351659,34.4781981 12.6351659,34.4781981 12.6360087,34.4781976 C13.4644355,34.4775036 14.1354456,33.8053683 14.1347515,32.9769415 L14.1100028,3.43603437 C14.1093093,2.6082657 13.4382011,1.93752777 12.6104322,1.93729109 L11.8250705,1.93706654 Z" id="Rectangle" stroke="#B7B6B6" fill="#B7B6B6" transform="translate(12.229697, 18.207632) rotate(-35.000000) translate(-12.229697, -18.207632) "></path>
                    <path d="M27.8251291,4.37368128 C27.0240176,4.40499398 26.384356,5.06452374 26.3847386,5.87315658 L26.3956965,23.6690705 C26.3960884,24.497126 27.0673992,25.1682273 27.8970542,25.1683635 L28.6885189,25.171025 C28.6889945,25.1710251 28.6889945,25.1710251 28.6894701,25.1710249 C29.5178972,25.1706329 30.1891522,24.4987423 30.1887602,23.6703865 L30.1778023,5.87447264 C30.1774105,5.04641708 29.5060996,4.37531576 28.677244,4.3751817 L27.8251291,4.37368128 Z" id="Rectangle" stroke="#B7B6B6" fill="#B7B6B6" transform="translate(28.286749, 14.771772) rotate(-16.000000) translate(-28.286749, -14.771772) "></path>
                    <path d="M106.094534,27.8213354 C106.093645,27.8213353 106.093645,27.8213353 106.092757,27.8213359 C105.26433,27.822068 104.593351,28.4942342 104.594083,29.322661 L104.604879,41.5381624 C104.605611,42.3658952 105.276694,43.0365875 106.104427,43.0368366 L106.894856,43.0370745 C106.895745,43.0370746 106.895745,43.0370746 106.896633,43.037074 C107.72506,43.0363418 108.396039,42.3641757 108.395307,41.5357489 L108.384511,29.3202475 C108.383779,28.4925146 107.712696,27.8218224 106.884963,27.8215733 L106.094534,27.8213354 Z" id="Rectangle" stroke="#B7B6B6" fill="#B7B6B6" transform="translate(106.494695, 35.429205) scale(-1, 1) rotate(-49.000000) translate(-106.494695, -35.429205) "></path>
                    <path d="M99.7529706,4.77631646 C99.7521278,4.77631638 99.7521278,4.77631638 99.751285,4.77631693 C98.9228582,4.77701097 98.2518482,5.44914624 98.2525422,6.27757307 L98.2772909,35.8184802 C98.2779844,36.6462488 98.9490926,37.3169868 99.7768615,37.3172234 L100.562223,37.317448 C100.563066,37.3174481 100.563066,37.3174481 100.563909,37.3174475 C101.392336,37.3167535 102.063346,36.6446182 102.062652,35.8161914 L102.037903,6.27528429 C102.037209,5.44751562 101.366101,4.77677769 100.538332,4.77654101 L99.7529706,4.77631646 Z" id="Rectangle" stroke="#B7B6B6" fill="#B7B6B6" transform="translate(100.157597, 21.046882) scale(-1, 1) rotate(-35.000000) translate(-100.157597, -21.046882) "></path>
                    <path d="M84.3251291,10.3275769 C83.5240176,10.3588896 82.884356,11.0184193 82.8847386,11.8270522 L82.8956965,29.622966 C82.8960884,30.4510216 83.5673992,31.1221229 84.3970542,31.122259 L85.1885189,31.1249206 C85.1889945,31.1249206 85.1889945,31.1249206 85.1894701,31.1249205 C86.0178972,31.1245285 86.6891522,30.4526379 86.6887602,29.6242821 L86.6778023,11.8283682 C86.6774105,11.0003127 86.0060996,10.3292113 85.177244,10.3290773 L84.3251291,10.3275769 Z" id="Rectangle" stroke="#B7B6B6" fill="#B7B6B6" transform="translate(84.786749, 20.725667) scale(-1, 1) rotate(-16.000000) translate(-84.786749, -20.725667) "></path>
                    <path d="M32.7776415,28.0750743 C32.7300452,28.0927339 32.6962308,28.1212075 32.6794809,28.1507388 C32.6548354,28.1941905 32.6710316,28.2464011 32.7505234,28.2876364 C35.2872356,29.6035151 36.9236191,30.6352649 37.7493889,31.4821234 C38.4617706,32.2126979 39.1233723,33.3558069 39.7905817,34.9410119 C39.8025882,34.9695379 39.8318025,34.9993151 39.8770798,35.020038 C39.9988016,35.0757486 40.1427357,35.027208 40.1830893,34.9465723 C41.2913937,32.7319264 42.2340102,31.2686991 43.1098807,30.4876082 C43.9799993,29.7116467 45.4399972,29.0171892 47.5502172,28.3219798 C47.6000222,28.3055716 47.6364502,28.277112 47.6552073,28.2466783 C47.6820851,28.2030685 47.6684199,28.1524807 47.5931226,28.1100385 C45.5376797,26.9514487 44.1962347,26.0538325 43.4932739,25.3329201 C42.7737405,24.5950119 41.921841,23.2225059 40.8555241,21.1405014 C40.8415465,21.1132099 40.8124446,21.0858978 40.7699407,21.0669289 C40.6475152,21.0122919 40.5047285,21.0619468 40.4655636,21.1422065 C39.4071792,23.3111268 38.448719,24.7913219 37.5096541,25.6287716 C36.5917675,26.4473347 35.0335772,27.2380597 32.7776415,28.0750743 Z" id="Rectangle" stroke="#B7B6B6" stroke-width="3"></path>
                    <path d="M65.4073708,30.2538805 C65.4092681,30.2560535 65.411147,30.2581898 65.4130072,30.2602891 C65.4096731,30.2565265 65.4045223,30.2514102 65.396901,30.2448929 Z M64.9779842,29.6139437 C65.1128966,29.4309758 65.2438715,29.2134028 65.3510198,28.9839438 C65.5359871,28.5878357 67.2898909,24.7377739 67.7641923,23.7608355 C68.7153377,21.8017213 69.4275894,20.6090306 70.2573186,19.8160589 C71.7271775,18.4113154 74.2103366,17.1455686 77.7949862,15.8800298 C77.8798928,15.8500541 77.9570208,15.7854793 78.0099137,15.693507 C78.146406,15.4561686 78.0680471,15.1453183 77.8611539,15.0203404 C76.8716998,14.4226331 76.5617084,14.292803 74.6358355,13.5862516 C73.4349596,13.1456822 72.6737331,12.7839979 71.8346955,12.1712124 C71.2083447,11.7137613 70.6263934,11.1603652 70.0622571,10.4820599 C69.1879522,9.43081464 68.6072177,8.44369744 68.1797149,7.33964891 C68.0056417,6.89009577 67.870687,6.46712598 67.6956506,5.85572409 C67.1515439,3.95515977 67.0132339,3.54003225 66.4718427,2.40722959 C66.4264457,2.31224127 66.3555575,2.24094492 66.2742223,2.20204348 C66.0969394,2.11725159 65.8830778,2.19694994 65.7835928,2.4154404 C63.9979763,6.33703263 62.3850867,9.00646035 60.8095818,10.5121745 C59.2584002,11.9946429 56.6099666,13.434914 52.7789363,14.9581442 C52.6942865,14.9918012 52.6186341,15.0600701 52.5684868,15.1548222 C52.4398825,15.3978165 52.52846,15.7038048 52.7371485,15.8198201 C57.0399595,18.2118529 59.8184153,20.0892646 61.2104513,21.619158 C62.1936121,22.6996841 62.6561341,23.7544076 64.1985418,27.7854319 C64.3906508,28.2875015 64.5200448,28.6228357 64.6504471,28.9548463 C64.7148759,29.118885 64.8378354,29.36817 64.9779842,29.6139437 Z" id="Rectangle" stroke="#B7B6B6" stroke-width="5" transform="translate(65.293274, 16.094430) rotate(91.000000) translate(-65.293274, -16.094430) "></path>
                    <text id="AR" font-family="MarkerFelt-Wide, Marker Felt" font-size="35" font-weight="bold" fill="#B7B6B6">
                        <tspan x="29.0894687" y="113.843403">AR</tspan>
                    </text>
                </g>
                <polygon id="Path-4" fill="#EAE5E5" style="mix-blend-mode: multiply;" points="77.8521904 20 20 167.067484 98.7226613 196.203847 237.781611 54.0674835"></polygon>
            </g>
        </g>
    </g>
</svg>