<?xml version="1.0" encoding="UTF-8"?>
<svg width="199px" height="200px" viewBox="0 0 199 200" version="1.1" xmlns="http://www.w3.org/2000/svg" xmlns:xlink="http://www.w3.org/1999/xlink">
    <!-- Generator: Sketch 53 (72520) - https://sketchapp.com -->
    <title>Light of the Desert</title>
    <desc>Created with Sketch.</desc>
    <g id="Rooms" stroke="none" stroke-width="1" fill="none" fill-rule="evenodd">
        <g id="Quiz-Copy-7" transform="translate(-413.000000, -150.000000)">
            <g id="Light-of-the-Desert" transform="translate(413.000000, 150.000000)">
                <polygon id="Facetshape" fill="#CCEAC1" opacity="0.623604911" points="99.3078515 0 59.8906381 26.90856 26.7563381 70.8202227 5.72122556 121.93612 1.10861933 171.364118 44.4639198 191.404271 97.4093126 200 151.114382 191.404271 196.108619 171.364118 193.041302 121.93612 171.355403 70.8202227 137.842666 28.8402993"></polygon>
                <g id="Group" opacity="0.598702567" transform="translate(118.913456, 97.454846) rotate(1.000000) translate(-118.913456, -97.454846) translate(65.913456, 45.954846)" fill="#FFFCFC">
                    <polygon id="Rectangle" transform="translate(57.277938, 44.506460) rotate(-51.000000) translate(-57.277938, -44.506460) " points="42.025169 -5.62103169 72.7729605 -0.0917172523 72.0701065 59.2839019 41.7829162 94.6339523"></polygon>
                    <polygon id="Rectangle" transform="translate(45.478742, 65.050773) rotate(-51.000000) translate(-45.478742, -65.050773) " points="41.7302938 9.56815281 48.8327775 10.1291315 49.2271903 116.925788 46.1782206 120.533393 41.932761 118.585299"></polygon>
                </g>
                <polygon id="Facet24" fill="#F7D8E8" opacity="0.623604911" points="100.172796 0 75.1086193 37.0078631 100.172796 51 123.108619 37.0078631"></polygon>
                <polygon id="Facet23" fill="#D9FF63" opacity="0.400646391" points="59.1086193 27.6964349 74.3830162 37 99.1086193 4.10782519e-15"></polygon>
                <polygon id="Facet22" fill="#D6F78C" opacity="0.142880394" points="59.7528982 29 27.1086193 70 75.1086193 37.2870501"></polygon>
                <polygon id="Facet21" fill="#ECFCC3" opacity="0.623604911" points="27.1946183 70.2942381 22.1086193 133 52.2296692 89.8735618 75.1086193 37"></polygon>
                <polygon id="Facet20" fill="#FFFD9E" opacity="0.623604911" points="27.1086193 72 6.10861933 122.677964 21.9323114 133"></polygon>
                <polygon id="Facet19" fill="#FFFB84" opacity="0.623604911" points="6.51486497 122 1.10861933 170 22.1086193 132.441338"></polygon>
                <polygon id="Facet18" fill="#FBFACE" opacity="0.623604911" points="21.2887456 133 45.1086193 147.007295 45.1086193 175 0.108619333 171.946118"></polygon>
                <polygon id="Facet17" fill="#FFFC9E" opacity="0.623604911" points="21.1086193 133.388411 45.0483907 147 53.1086193 89"></polygon>
                <polygon id="Facet16" fill="#E3F6B9" opacity="0.623604911" points="53.1086193 88 99.1086193 51.324649 74.4764456 37"></polygon>
                <polygon id="Facet15" fill="#F9ADFC" opacity="0.623604911" points="99.1086193 51.324649 144.108619 88 122.478752 37"></polygon>
                <polygon id="Facet14" fill="#FCD2FE" opacity="0.623604911" points="122.236747 38 138.108619 29.6190664 99.1086193 1"></polygon>
                <polygon id="Facet13" fill="#FEE7FF" opacity="0.623604911" points="123.108619 37.5153647 172.108619 73 138.83527 29"></polygon>
                <polygon id="Facet12" fill="#FCD2FE" opacity="0.623604911" points="123.108619 37 144.508485 88.4037924 178.108619 133 172.54719 72.1468517"></polygon>
                <polygon id="Facet11" fill="#FEE7FF" opacity="0.623604911" points="172.108619 72 193.108619 122.613267 177.48829 133"></polygon>
                <polygon id="Facet10" fill="#F7BBFA" points="144.108619 89 153.998936 147 177.108619 133.388411"></polygon>
                <polygon id="Facet9" fill="#FFF2FF" opacity="0.623604911" points="192.966822 122 177.108619 132.441338 196.108619 170"></polygon>
                <polygon id="Facet8" fill="#E4FABE" opacity="0.623604911" points="45.1086193 147 99.1086193 168.032371 45.1086193 175"></polygon>
                <polygon id="Facet7" fill="#FFFC92" opacity="0.623604911" points="99.1086193 167.234414 154.108619 146 154.108619 172"></polygon>
                <polygon id="Facet6" fill="#FEE7FF" opacity="0.623604911" points="154.108619 146.483035 154.108619 172 198.108619 172 177.140527 133"></polygon>
                <polygon id="Facet5" fill="#EDF7D8" opacity="0.623604911" points="46.2032423 175 99.1086193 200 99.1086193 168"></polygon>
                <polygon id="Facet4" fill="#FEFEE2" opacity="0.623604911" points="99.1086193 167 99.1086193 200 154.108619 171.96785"></polygon>
                <polygon id="Facet3" fill="#EDF7D8" opacity="0.623604911" points="44.1086193 174.15514 44.1086193 191.224716 99.1086193 200"></polygon>
                <polygon id="Facet2" fill="#FCD2FE" opacity="0.623604911" points="99.1086193 200 154.108619 190.828157 154.108619 172"></polygon>
                <polygon id="Facet1" fill="#FCD2FE" opacity="0.623604911" points="154.108619 172 154.108619 191 196.108619 172"></polygon>
                <polygon id="Facet26" fill="#F9F6B5" opacity="0.623604911" points="44.694015 175 1.10861933 172 44.694015 190.603653"></polygon>
            </g>
        </g>
    </g>
</svg>