<?xml version="1.0" encoding="UTF-8"?>
<svg width="262px" height="262px" viewBox="0 0 262 262" version="1.1" xmlns="http://www.w3.org/2000/svg" xmlns:xlink="http://www.w3.org/1999/xlink">
    <!-- Generator: Sketch 53 (72520) - https://sketchapp.com -->
    <title>Combined Shape</title>
    <desc>Created with Sketch.</desc>
    <g id="Symbols" stroke="none" stroke-width="1" fill="none" fill-rule="evenodd">
        <g id="Artboard" transform="translate(-166.000000, -136.000000)" fill="#4A4A4A">
            <path d="M297,398 C224.650698,398 166,339.349302 166,267 C166,194.650698 224.650698,136 297,136 C369.349302,136 428,194.650698 428,267 C428,339.349302 369.349302,398 297,398 Z M334.58588,229.790659 C336.376381,225.950916 336.711658,221.998136 335.59172,217.9322 C334.471782,213.866265 331.991979,210.93809 328.152236,209.147588 C321.711376,206.144166 313.279656,213.069521 302.856821,229.923859 C299.753909,234.961164 293.771526,246.496913 284.909495,264.531453 C272.027776,258.524609 257.586137,253.599884 241.584146,249.757131 C236.473057,248.429361 233.331299,247.567509 232.158776,247.171548 L234.151421,242.898307 C240.851363,228.530236 248.299209,216.923876 256.495184,208.07888 C256.850079,207.641187 258.401845,206.253679 261.15053,203.916314 C263.181077,202.148851 264.542879,200.521967 265.235977,199.035615 C266.564414,196.186774 266.375702,193.196001 264.669836,190.063209 C262.963971,186.930417 260.624721,184.670958 257.652017,183.284763 C252.821372,181.032196 248.288933,181.859158 244.054563,185.765673 C238.928783,190.613677 231.283293,203.937396 221.117864,225.737228 C220.135976,227.842894 218.621768,230.605057 216.575194,234.0238 C214.23983,238.061857 212.634813,240.857072 211.760095,242.409529 C210.04271,242.211882 208.248982,242.016325 206.378855,241.822852 C204.508729,241.629378 203.227136,242.275808 202.534039,243.76216 C201.321118,246.363277 200.847208,249.158158 201.112293,252.146888 C201.377378,255.135618 202.571082,257.426377 204.693441,259.019232 C194.974718,283.74169 190.516224,297.345181 191.317826,299.830114 C192.590505,303.891877 195.518261,306.991236 200.10118,309.128287 C205.055687,311.438611 208.283748,310.983566 209.785459,307.763136 C210.07425,307.143823 210.177245,306.437883 210.094447,305.645295 C208.631801,301.344154 210.095264,294.486904 214.484881,285.07334 C219.971902,273.306385 222.843072,266.502386 223.098477,264.661139 C232.271995,266.978476 241.507305,269.324657 250.804686,271.699752 C261.580073,274.462461 270.617406,277.394895 277.916958,280.49714 C276.910698,283.948602 275.285482,288.242333 273.041262,293.378461 L269.489155,300.995978 C267.698654,304.835721 266.291947,308.17579 265.268994,311.016286 C262.555029,319.100079 261.090899,323.695115 260.87656,324.801533 C260.052587,330.449138 261.993963,334.370286 266.700745,336.565094 C269.177999,337.720257 271.82206,337.709157 274.633009,336.531794 C277.443959,335.354432 279.426985,333.527151 280.582147,331.049897 C281.044212,330.058996 281.501763,327.784263 281.954815,324.225631 C282.325069,319.874411 284.147928,313.863322 287.423448,306.192182 C290.071975,300.189015 292.691584,294.247868 295.282353,288.368564 L301.375966,289.852908 C304.018148,290.330999 305.685762,289.826875 306.37886,288.340523 C307.302989,286.35872 307.419924,283.925155 306.729665,281.039755 C306.039407,278.154355 304.765327,276.278497 302.907387,275.412125 C302.411936,275.181093 301.949544,275.040873 301.520198,274.991461 L304.713238,267.658894 C312.782682,249.707151 319.842586,238.447668 325.893164,233.880108 C326.42968,233.376311 327.882625,232.847482 330.252041,232.293606 C332.621458,231.73973 334.066057,230.905423 334.58588,229.790659 Z M396.990322,294.805129 C405.769556,275.978001 405.157769,259.180835 395.154942,244.413126 C391.652735,239.311717 388.291466,236.010207 385.071036,234.508496 C374.790434,229.714572 363.686358,231.699347 351.758478,240.46288 C341.564007,247.772779 333.867773,257.001411 328.669542,268.149053 C323.413553,279.420557 321.794178,289.52256 323.811368,298.455365 C325.919701,308.486242 332.423729,316.042924 343.323645,321.125638 C353.975836,326.092836 364.630372,325.557166 375.287575,319.518612 C384.557915,314.190516 391.792092,305.952771 396.990322,294.805129 Z M380.813803,286.809509 C377.406074,294.117408 373.312655,299.823686 368.533423,303.928514 C362.26016,309.297009 355.965124,310.508406 349.648127,307.562742 C339.862975,302.999851 338.81133,292.481694 346.49316,276.007957 C350.074163,268.328471 354.518299,262.031768 359.8257,257.117658 C366.92427,250.626053 373.755814,248.910866 380.320536,251.972047 C389.486375,256.246147 389.650795,267.858519 380.813803,286.809509 Z" id="Combined-Shape"></path>
        </g>
    </g>
</svg>