<?xml version="1.0" encoding="UTF-8"?>
<svg width="285px" height="236px" viewBox="0 0 285 236" version="1.1" xmlns="http://www.w3.org/2000/svg" xmlns:xlink="http://www.w3.org/1999/xlink">
    <!-- Generator: Sketch 53 (72520) - https://sketchapp.com -->
    <title>Map</title>
    <desc>Created with Sketch.</desc>
    <defs>
        <polygon id="path-1" points="100.385001 14 164.71388 14 208.094289 46.0627192 269 56.7227311 200.30952 223 127.750295 211.36931 79.4289102 175.082399 18 175.082399"></polygon>
    </defs>
    <g id="Rooms" stroke="none" stroke-width="1" fill="none" fill-rule="evenodd">
        <g id="Play-at-the-ROM" transform="translate(-458.000000, -185.000000)">
            <g id="Map" transform="translate(458.000000, 185.000000)">
                <g>
                    <polygon id="Path-33" fill="#F0EDD7" points="0 190 75.1686003 187.907752 171 1 97.1213766 1"></polygon>
                    <polygon id="Path-35" fill="#F0EDD7" points="213.403809 34 285 47.3346158 208.254725 236 122 223.485509"></polygon>
                    <polygon id="Path-34" fill="#E2DDB7" points="73 187.817284 122.70099 224 214 34.3778683 171.640152 0"></polygon>
                    <mask id="mask-2" fill="white">
                        <use xlink:href="#path-1"></use>
                    </mask>
                    <use id="Mask" fill="#4A90E2" xlink:href="#path-1"></use>
                    <polygon id="Path-36" fill="#4A90E2" mask="url(#mask-2)" points="100.385001 14 164.71388 14 208.094289 46.0627192 269 56.7227311 200.30952 223 127.750295 211.36931 79.4289102 175.082399 18 175.082399"></polygon>
                    <path d="M40.6014471,120.437971 C63.6306258,121.986207 79.7717195,121.986207 89.0247284,120.437971 C102.904242,118.115617 106.58928,117.217437 106.58928,117.217437 C114.77249,112.911345 125.921195,107.967759 140.035396,102.386677 C152.413206,105.384477 159.478553,109.896091 161.231436,115.92152 C162.984319,121.946948 159.442446,129.547061 150.605817,138.721858 L97.7948941,132.891317 C82.3036596,137.097923 69.5483896,142.516463 59.5290842,149.146937 C49.5097787,155.777411 41.000084,165.161337 34,177.298716 L47.9047561,177.298716 C52.5297669,168.331414 57.7726769,161.345532 63.6334862,156.341067 C69.4942955,151.336603 78.8278175,147.603703 91.6340523,145.142367 C96.4206385,161.335849 103.751914,172.054632 113.627878,177.298716 C123.503842,182.5428 136.358803,182.5428 152.19276,177.298716 L181.378713,190.350867 L158.899685,220.272119 L170.59396,223 L192.090815,194.917925 L212.565594,204.570966 L214.72293,194.917925 L197.248144,186.8926 L212.565594,168.880665 L202.877568,127.270678 L241.114251,90.8497911 L252.301217,102.386677 L257,90.8497911 L248.720297,82.9140231 L257,75.6077764 L250.928218,66.9388953 L241.173684,75.6077764 L226.365099,53.732013 L197.248144,60.5156166 L173.995967,53.732013 L168.614171,12.6118097 L164.198329,9.59975158 L158.899685,9.59975158 L164.198329,53.732013 L138.738243,57.5661299 L106.58928,9.59975158 C102.101268,8.80008281 99.1698064,8.80008281 97.7948941,9.59975158 C96.4199819,10.3994204 95.2534245,12.7828876 94.2952219,16.7501532 L130.872525,60.5156166 L106.58928,57.5661299 L108.154312,66.9388953 L134.736386,69.6531999 L139.35922,90.8497911 C130.238685,95.3635283 121.661571,99.2091569 113.627878,102.386677 C101.577338,107.152957 101.577338,107.152957 89.0247284,110.7583 C80.6563218,113.161862 65.9638241,113.161862 44.9472354,110.7583 L40.6014471,120.437971 Z" id="Path-37" fill="#D8D8D8" mask="url(#mask-2)"></path>
                    <path d="M145,68.2227187 L148.836763,89.7358036 C161.073253,96.3528718 168.554349,102.658642 171.28005,108.653113 C174.005752,114.647584 170.136205,125.353948 159.671409,140.772203 L202.560088,161 L193.690174,123.073865 L237,82.1795397 L222.170326,63 L195.812901,68.2227187 L186.572597,65.524734 L175.389587,63 L177.876293,77.0144001 L167.191498,77.0144001 L164.931253,65.524734 L145,68.2227187 Z" id="Path-38" fill="#4A90E2" mask="url(#mask-2)"></path>
                    <path d="M101,141 C106.089997,154.608436 112.462283,163.516354 120.116857,167.723754 C127.771432,171.931154 137.130366,171.931154 148.19366,167.723754 L183.185969,183 L193,169.451041 L147.746873,147.10437 L101,141 Z" id="Path-39" fill="#4A90E2" mask="url(#mask-2)"></path>
                    <polygon id="Path-34" fill="#A5A5A5" opacity="0.287574405" mask="url(#mask-2)" points="75 187.817284 124.714078 224 216 34.5728947 173.666127 0"></polygon>
                </g>
            </g>
        </g>
    </g>
</svg>