<?xml version="1.0" encoding="UTF-8"?>
<svg width="133px" height="112px" viewBox="0 0 133 112" version="1.1" xmlns="http://www.w3.org/2000/svg" xmlns:xlink="http://www.w3.org/1999/xlink">
    <!-- Generator: Sketch 53 (72520) - https://sketchapp.com -->
    <title>Meteorite</title>
    <desc>Created with Sketch.</desc>
    <g id="Rooms" stroke="none" stroke-width="1" fill="none" fill-rule="evenodd">
        <g id="Intro-Card" transform="translate(-347.000000, -217.000000)">
            <g id="Meteorite" transform="translate(410.000000, 275.500000) rotate(-45.000000) translate(-410.000000, -275.500000) translate(359.000000, 214.000000)">
                <path d="M0,50.1880134 C3.01651559e-16,56.1286044 8.17273759,62.8673046 10.5612322,72.8353043 C12.9497268,82.8033039 8.96279378,86.3004817 10.5612322,94.263624 C11.2479112,97.6845396 19.4211491,100.596032 29.6610442,107.366308 C35.3119712,111.102512 40.3261844,119.758547 48.2679195,122.289059 C56.2096545,124.819571 53.1024223,119.859538 65.6861471,118.845153 C78.2698718,117.830767 86.1245114,121.460682 90.9905133,118.845153 C95.8565152,116.229623 91.0369312,113.506143 94.2052071,103.515847 C97.373483,93.5255505 101.650768,93.390966 101.986989,84.1707584 C102.32321,74.9505507 96.0354389,72.5112203 95.5923869,65.4751456 C95.149335,58.4390709 99.9159762,58.4390709 99.9159762,51.2811563 C99.9159762,44.1232418 88.7646345,38.727635 85.4273706,30.6531434 C82.0901068,22.5786518 85.4273706,16.6657946 84.2582368,13.3973417 C83.4788142,11.218373 79.7445996,9.07397965 73.055593,6.96416148 L49.7679402,3.5303767 C47.2810761,0.826874999 43.8582346,-0.323905407 39.4994157,0.078035486 C35.1405968,0.479976379 30.8260574,2.34424589 26.5557976,5.670844 C22.1804654,5.26456187 18.469724,6.48622305 15.4235733,9.33582753 C10.8543472,13.6102343 11.4013678,14.6283153 8.96279378,22.1286975 C7.33707779,27.1289523 6.37552602,32.4459904 6.07813846,38.079812 C2.02604615,42.1915522 0,46.2276193 0,50.1880134 Z" id="Path-4" fill="#868686"></path>
                <path d="M0,51.2297656 C3.00535387e-16,57.1219388 8.14249682,63.8057163 10.5221535,73.6924733 C12.9018102,83.5792304 8.92962965,87.047905 10.5221535,94.9461449 C11.2062917,98.3391789 19.349287,101.226941 29.5512924,107.942037 C35.1813098,111.64779 40.1769695,120.233276 48.0893185,122.743163 C56.0016675,125.25305 44.7357921,108.604043 49.5837889,106.009831 C51.8551268,104.794415 47.842323,103.717148 43.2646919,103.265441 C38.07172,102.753014 32.1505435,102.67609 33.8282178,97.4096301 C36.9847705,87.5007584 26.1225588,96.1929647 26.4575358,87.047905 C26.5160835,85.449519 29.9600373,86.6062861 29.5512924,83.7074916 C29.3373411,82.1901621 26.400568,80.9720559 25.5,78.7004397 C24.258567,75.5690167 25.0433304,71.365665 25.5,70.0251644 C27.7002305,63.5666434 34.0964279,62.2074026 33.8282178,57.9670037 C33.3868053,50.9882753 23.6321482,46.3198253 23.6321482,39.2202502 C23.6321482,32.1206751 29.7824511,35.5656627 26.4575358,27.556981 C25.222285,24.581648 20.9579744,21.8803339 21.0994605,17.9807644 C21.1743973,15.9153919 23.9916746,12.2802793 29.5512924,7.07542638 L26.4575358,7.07542638 C22.0983933,6.67245559 18.4013823,7.88415981 15.366503,10.710539 C10.8141839,14.9501079 11.3591804,15.9598913 8.92962965,23.3991428 C7.30992913,28.3586437 6.35193529,33.6323462 6.05564813,39.2202502 C2.01854938,43.2984783 0,47.3016501 0,51.2297656 Z" id="Path-4" fill="#7B7B7B"></path>
                <path d="M0,51.579031 C3.01365807e-16,57.4355844 8.16499562,64.0789565 10.5512276,73.9059452 C12.9374597,83.732934 8.9543034,87.1806394 10.5512276,95.0311322 C11.2372562,98.4036543 19.4027516,101.273959 29.6329465,107.948461 C35.2785204,111.631811 40.2879838,120.165395 48.2221957,122.660109 C56.1564075,125.154824 34.6752849,113.184234 39.5366773,110.605705 C41.8142912,109.397637 35.8085351,104.407224 31.2182554,103.958248 C26.0109347,103.44892 13.7266528,96.9654486 15.4089627,91.7308257 C18.5742373,81.8818559 13.4257102,79.5091504 13.7616128,70.4193751 C13.8203223,68.8306519 9.36417779,61.156811 8.9543034,58.2755405 C8.68105381,56.3546936 12.5703344,59.082079 20.6221452,66.4576968 C19.071639,62.2564708 17.3339115,58.8192729 15.4089627,56.1461029 C11.9468986,51.3383463 7.33702351,47.380225 7.58671107,46.6537343 C9.79302109,40.234257 12.3011689,43.7019908 12.0322177,39.4872263 C11.5895855,32.5506864 12.0322177,37.1497252 12.0322177,30.0930691 C12.0322177,23.036413 17.9754449,41.0545918 18.1173219,37.1785963 C18.1699301,35.7413726 19.5616425,32.5054117 18.1173219,28.0493552 C17.7048531,26.7767954 16.2529501,24.6874172 13.7616128,21.7812206 L15.4089627,16.4865478 C18.4522278,10.2227262 18.4522278,8.49546191 15.4089627,11.3047549 C10.844065,15.5186943 11.3905673,16.5223733 8.9543034,23.9166523 C7.33012744,28.8461717 6.36948654,34.0879931 6.07238069,39.6421166 C2.0241269,43.6956907 0,47.6746621 0,51.579031 Z" id="Path-4" fill="#565454"></path>
                <path d="M41.3922601,27.8458685 C39.1771052,30.4990856 38.3544122,34.6299397 39.5459592,38.4582598 C40.8436306,42.6275469 43.5517202,44.5977668 46.3706968,43.8410829 C48.6515575,43.2288427 49.1927505,40.0650731 49.7456338,35.7204116 C50.2104923,32.067466 50.1837783,29.5215712 48.4061804,27.8458685 C46.0070915,25.5842997 43.6072158,25.19289 41.3922601,27.8458685 Z" id="Path-5" fill="#7B7B7B"></path>
                <path d="M59.1947813,21.5096249 C58.3660118,24.5336513 60.3064433,26.4096668 62.6616042,29.5286573 C65.993888,33.941673 68.0655062,38.4189431 70.5696707,36.5736372 C73.506603,34.4094268 74.7470942,27.4034192 73.5437978,21.5096249 C72.6469036,17.1166006 69.9565437,16 66.3692895,16 C62.7820354,16 60.2198545,17.7693226 59.1947813,21.5096249 Z" id="Path-6" fill="#7B7B7B"></path>
                <path d="M51.1967925,57.0115338 C47.4889203,58.6361902 45.5623153,61.5668208 45.1652656,67.30505 C44.7419468,73.4229245 45.069866,73.8535867 46.876724,80.7237411 C47.1357486,81.7086215 48.0288591,82.8007078 49.5560555,84 C54.7805544,80.556029 58.7907957,76.0579513 61.5867794,70.5057669 C63.4081658,66.8889098 63.5329486,62.6373643 61.5867794,60.1097326 C58.3379551,55.8902478 55.6996772,55.0385315 51.1967925,57.0115338 Z" id="Path-7" fill="#7B7B7B"></path>
                <path d="M73.1449617,53.7346078 C72.70574,57.4178037 73.2419885,59.129374 75.0640348,62.5991643 C76.3689551,65.0841722 77.7287266,66.7688188 79.3988949,65.6442043 C82.1334866,63.8028558 84.5921273,60.1911139 83.8735549,56.6672383 C83.1099292,52.9224211 80.1353612,52.1184387 76.4344987,51.1068185 C74.7710646,50.6521235 73.390972,51.6716309 73.1449617,53.7346078 Z" id="Path-8" fill="#7B7B7B"></path>
                <path d="M78.6382415,87.0812264 C76.4772741,86.4405241 74,89.699316 74,93.0109989 C74,97.1115317 75.9815975,101.117993 78.6382415,101.905658 C80.9815975,102.600436 84,99.340655 84,95.9758852 C84,91.9284393 81.4772741,87.9229672 78.6382415,87.0812264 Z" id="Path-9" fill="#7B7B7B"></path>
            </g>
        </g>
    </g>
</svg>