<?xml version="1.0" encoding="UTF-8"?>
<svg width="236px" height="218px" viewBox="0 0 236 218" version="1.1" xmlns="http://www.w3.org/2000/svg" xmlns:xlink="http://www.w3.org/1999/xlink">
    <!-- Generator: Sketch 53 (72520) - https://sketchapp.com -->
    <title>Mineral</title>
    <desc>Created with Sketch.</desc>
    <defs>
        <path d="M0.989613432,95.9654483 C20.5119671,129.577345 20.5119671,137.282911 50.2839082,163.189242 C115.573302,168.267042 140.66945,168.267042 220.211429,163.189242 C240.305237,147.274552 245.439883,145.844188 255.244693,129.577345 C246.777031,83.9014306 251.219176,80.0569182 235.474616,35.5590912 C224.255266,20.0208897 204.992842,31.3170446 178.027944,22.6362571 C151.314111,14.0362949 160.056681,10.1866612 128.117153,0.997591783 C90.2012801,5.73353652 62.4730634,16.1470956 30.4462693,34.1911686 C9.32778379,62.837032 -2.99637689,65.8242073 0.989613432,95.9654483 Z" id="path-1"></path>
    </defs>
    <g id="Rooms" stroke="none" stroke-width="1" fill="none" fill-rule="evenodd">
        <g id="Activities-Box-(1)" transform="translate(-407.000000, -58.000000)">
            <g id="Mineral" transform="translate(514.022936, 164.444698) rotate(-39.000000) translate(-514.022936, -164.444698) translate(386.022936, 80.944698)">
                <mask id="mask-2" fill="white">
                    <use xlink:href="#path-1"></use>
                </mask>
                <use id="Mask" fill="#EAA200" xlink:href="#path-1"></use>
                <path d="M55.8003682,8.31373044 C50.0497006,11.2302961 59.6998265,28.4992107 60.5717205,34.3215461 C63.8688292,56.3389862 59.619084,55.4115709 63.0552541,77.7496467 C65.7510519,95.2746629 69.1440678,96.9766627 72.8356562,114.04773 C75.2886442,125.391119 73.7732564,129.366021 85.1248092,135.303481 C120.570665,153.843531 118.624115,157.049032 158.4821,172.148472 C167.253968,175.471528 173.175078,170.939714 182.384516,172.148472 C208.015359,175.512575 215.524346,179.841865 236.111034,172.148472 C247.929772,167.731726 240.948861,159.777529 247.195368,147.928193 C254.281723,134.485705 261.727785,135.434928 262.776759,121.564824 C264.229886,102.350777 257.683254,101.623236 252.19957,81.7598917 C249.892558,73.4032915 255.555317,64.788982 247.195368,65.1249347 C212.670769,66.5123394 200.72844,88.5378008 166.430472,85.2066067 C149.340111,83.5467033 146.955082,70.586183 144.418711,55.1427397 C142.536479,43.6822159 156.163854,43.2578281 157.593266,31.3986724 C158.503444,23.8473563 153.316467,23.8717138 149.097892,16.3217961 C146.72919,12.0825679 148.678572,10.2802134 144.418711,7.82038057 C136.278744,3.12000256 134.186345,0.148660603 124.298235,2.00137442 C94.2258146,7.63597922 81.912958,-4.92978972 55.8003682,8.31373044 Z" id="Path-11" fill="#FFB600" mask="url(#mask-2)"></path>
                <path d="M142.89463,5.66484008 C137.177049,5.69483344 136.259819,11.6397456 138.318266,16.1330268 C141.085752,22.1740313 152.546497,20.3648208 152.546497,26.7334115 C152.546497,39.3420679 136.99302,40.6754265 138.318266,54.087521 C139.82801,69.3668148 142.273828,78.5715205 158.216477,84.116188 C173.390021,89.3933696 179.342865,79.8137404 200.550651,75.7312193 C223.750703,71.2651849 237.928536,77.8622451 247.032154,67.019077 C256.569089,55.6597925 253.014941,42.6877387 237.831755,31.326314 C218.871674,17.1386765 208.158696,23.8712971 178.745621,15.9209524 C160.690134,11.0405601 157.390727,5.58879627 142.89463,5.66484008 Z" id="Path-12" fill="#F09D00" mask="url(#mask-2)"></path>
                <path d="M176.911822,27.9553302 C167.237186,31.313272 165.935629,35.6236976 164.240703,43.9396101 C162.76785,51.1659532 164.018539,53.2194932 170.576262,59.0398414 C176.467134,64.2683219 179.093064,65.4247306 189.137892,66.0372675 C204.87468,66.9969021 209.877212,66.4472544 222.139495,62.1841845 C226.378013,60.7106334 224.575475,57.6984148 222.139495,54.5640256 C218.673625,50.1044719 214.486578,51.5469611 210.335795,46.9962989 C203.845106,39.8803079 209.431923,36.1159369 200.856551,31.2307192 C192.719936,26.5954526 185.54511,24.9588266 176.911822,27.9553302 Z" id="Path-13" fill="#FFB600" mask="url(#mask-2)"></path>
                <path d="M58.4020312,22.4337376 C55.7233894,16.5795509 47.3202574,21.1799581 42.2761407,26.4991279 C18.2635992,51.8210612 0.288714931,53.9912714 0.288714931,83.7159437 C0.288714931,121.516455 4.45054551,143.255158 42.2761407,161.549495 C90.9660464,185.098351 159.45362,176.399584 173.319717,167.40233 C183.277299,160.941183 113.759296,160.701537 89.9234984,130.632693 C56.3004531,88.2172412 79.5470682,68.6463335 58.4020312,22.4337376 Z" id="Path-14" fill="#FFD34A" mask="url(#mask-2)"></path>
                <path d="M-0.36728077,87.3251559 C-7.43336909,89.3925057 -7.11951446,97.3941178 -0.36728077,101.222406 C14.9713284,109.918878 23.7665077,104.210944 36.0880164,114.301676 C45.8573505,122.302298 34.1213992,128.215246 43.8144049,137.405113 C60.8421772,153.54902 66.1424069,159.026918 92.3858925,172.247451 C100.724385,176.448086 104.473887,170.881508 112.978361,172.247451 C119.182392,173.243909 130.515353,170.915088 126.67297,167.767024 C105.602595,150.504071 86.0976625,153.432168 63.1528447,131.425417 C44.6683799,113.696664 62.9897036,101.608896 43.8144049,88.2960177 C31.2296409,79.5587651 14.6574737,82.9293117 -0.36728077,87.3251559 Z" id="Path-10" fill="#DDB154" mask="url(#mask-2)"></path>
                <path d="M42.1147944,26.7844173 C50.3507801,28.3785904 48.9446085,45.5676894 42.1147944,54.0377699 C31.193836,67.581535 21.9073843,58.7799481 6.61324931,70.8121087 C-4.19278381,79.3134019 -8.45428285,85.4432297 -10.0855418,95.1046776 C-10.8311387,99.5206199 -4.27701534,98.3055216 1.85953756,98.9668892 C15.4674317,100.433481 19.0035289,91.912473 29.4033522,99.3605967 C43.6077342,109.533461 39.5735816,117.387858 51.0679481,134.208866 C57.4009409,143.476651 56.2511998,145.820597 65.0580708,151.538184 C85.2061401,164.618691 113.737997,167.600175 108.977829,171.805055 C102.266359,177.73361 70.4098973,186.367592 42.1147944,171.805055 C6.40729098,153.427604 -2.08585458,144.693475 -19.0273839,105.925077 C-30.1952507,80.3689248 -29.0636269,62.5192628 -14.1039977,43.1559533 C1.50746227,22.9489329 22.2413841,22.9376821 42.1147944,26.7844173 Z" id="Path-15" fill="#F09D00" mask="url(#mask-2)"></path>
                <path d="M78.9199964,15.9833483 C85.0825139,5.35683252 103.94539,-2.14337737 112.791412,0.996474022 C120.881097,3.86786761 110.465989,14.7263052 112.791412,28.0058382 C115.215148,41.8467992 119.962465,41.3871607 122.28973,55.2374621 C124.711624,69.6509329 116.38893,71.4821847 122.28973,84.5333827 C127.622545,96.3283301 129.235333,105.050186 144.75696,104.929753 C191.002596,104.570932 203.379806,83.5748764 245.824256,83.5748764 C257.719547,83.5748764 262.894342,99.1649092 253.436443,104.929753 C223.071324,123.43811 208.612977,129.878255 166.17822,132.121278 C143.03962,133.344341 135.39593,127.346955 122.28973,111.861925 C96.9938533,81.974741 105.367738,76.7344658 89.3740673,41.3768505 C83.6828709,28.7951775 73.3738418,25.5470208 78.9199964,15.9833483 Z" id="Path-17" fill="#FFD34A" mask="url(#mask-2)"></path>
                <path d="M72.2824938,5.61095754 C79.5790649,35.3155011 88.6749792,39.3233428 91.9390313,70.2924219 C93.4590846,84.7145717 86.7489232,93.6178093 88.3551686,106.828493 C89.9659671,120.076624 93.9946634,126.399415 111.311566,131.837185 C168.339437,149.744802 182.494805,156.983021 237.044716,153.519268 C255.923235,152.320539 251.156972,138.723994 258.168425,122.512221 C261.718827,114.303038 265.152244,105.035725 258.168425,104.677356 C243.345493,103.916729 237.531127,117.130611 214.554923,120.27423 C186.087939,124.1691 182.656973,125.18286 155.282049,118.754335 C131.035294,113.060406 122.224322,112.129953 111.311566,96.0293229 C100.239081,79.6930276 116.802338,74.0609352 111.311566,53.880485 C105.32414,31.8746594 97.828762,17.4616128 84.1667492,1.56919294 C81.5664575,-1.45561223 71.3179098,1.68410938 72.2824938,5.61095754 Z" id="Path-16" fill="#FFE073" mask="url(#mask-2)"></path>
                <path d="M55.8077306,18.8228394 C63.2652078,30.0578569 67.5757848,38.028704 68.7394615,42.7353808 C71.7983386,55.1074988 67.1408909,64.6788226 68.3705353,71.1409437 C72.4813806,92.7445718 71.5988659,110.325651 80.2884377,121.224436 C95.1017173,139.803804 126.274815,155.003271 173.807731,166.822839" id="Line" stroke="#F09D00" stroke-width="14" stroke-linecap="square" mask="url(#mask-2)"></path>
                <path d="M0.199061335,102.034507 C5.3047334,100.3918 8.97480754,99.2701189 11.2092838,98.6694634 C18.4529126,96.7222843 25.4256951,97.1184584 36.4951392,104.571857 C39.7700347,106.776945 39.7595274,111.898972 41.974959,117.730585 C44.9783499,125.636319 49.8824697,134.990381 52.1646135,141.495205 C54.9075458,149.313421 69.585695,157.706443 96.1990613,166.674271" id="Line-2" stroke="#FFE073" stroke-width="14" stroke-linecap="square" mask="url(#mask-2)"></path>
            </g>
        </g>
    </g>
</svg>