<?xml version="1.0" encoding="UTF-8"?>
<svg width="174px" height="220px" viewBox="0 0 174 220" version="1.1" xmlns="http://www.w3.org/2000/svg" xmlns:xlink="http://www.w3.org/1999/xlink">
    <!-- Generator: Sketch 53 (72520) - https://sketchapp.com -->
    <title>Ralph</title>
    <desc>Created with Sketch.</desc>
    <defs>
        <path d="M113,226 C136.376583,226 174.043249,226 226,226 C226,168.895535 226,131.228868 226,113 C226,50.5918233 175.408177,0 113,0 C50.5918233,0 0,50.5918233 0,113 C0,132.193619 0,169.860286 0,226 C52.9215013,226 90.588168,226 113,226 Z" id="path-1"></path>
        <linearGradient x1="63.75567%" y1="100%" x2="15.628505%" y2="26.3230297%" id="linearGradient-3">
            <stop stop-color="#D1CE63" offset="0%"></stop>
            <stop stop-color="#417505" offset="100%"></stop>
        </linearGradient>
        <linearGradient x1="-3.55051124%" y1="33.4997903%" x2="52.2733966%" y2="82.0188852%" id="linearGradient-4">
            <stop stop-color="#D1CE63" offset="0%"></stop>
            <stop stop-color="#417505" offset="100%"></stop>
        </linearGradient>
    </defs>
    <g id="Page-3" stroke="none" stroke-width="1" fill="none" fill-rule="evenodd">
        <g id="Artboard" transform="translate(-140.000000, -4400.000000)">
            <g id="Ralph" transform="translate(129.000000, 4394.000000)">
                <mask id="mask-2" fill="white">
                    <use xlink:href="#path-1"></use>
                </mask>
                <g id="Mask"></g>
                <path d="M69.6520888,116.558046 C71.4926674,108.416059 84.4270999,86.4783545 90.5935786,91.8312795 C105.676404,104.924203 90.6429953,129.392841 100.998975,147.862917 C102.505989,150.550704 136.747273,165.536542 152.682312,188.387575 C155.635733,192.622814 200.066436,242.053109 196.8317,243.670795 C174.224767,254.976485 97.0228623,244.982731 69.6520888,243.670795 C58.0011448,243.112342 78.7713977,215.395601 69.6520888,195.572064 C60.5327799,175.748526 73.6656107,169.396459 69.6520888,146.092521 C67.7796427,135.220432 67.8115101,124.700032 69.6520888,116.558046 Z" id="Path-2" fill="url(#linearGradient-3)" mask="url(#mask-2)"></path>
                <path d="M25,131.925948 C25,136.832903 30.4409745,138 37.8211719,138 C41.254229,134.950795 45.8420215,131.004603 48.7767708,129.734701 C57.7216942,125.864123 66.0300147,132.484042 80.2532023,123.883959 C87.8099005,119.314784 97.2559,111.948233 90.9151781,113.125691 C70.8704391,116.847954 44.8635847,119.915386 25,131.925948 Z" id="Path-9" fill="#457808" mask="url(#mask-2)"></path>
                <g id="Left-Eye" mask="url(#mask-2)">
                    <g transform="translate(37.000000, 87.500000) scale(-1, 1) translate(-37.000000, -87.500000) translate(23.000000, 72.000000)">
                        <ellipse id="Left-Eye" fill="#457808" cx="12.32" cy="13.2037037" rx="11.2" ry="13.2037037"></ellipse>
                        <path d="M13.7463883,26.614421 C20.0442678,26.543253 25.2085154,21.1508619 25.2810582,14.5701782 C25.3536011,7.98949452 2.54696214,8.24721639 2.4744193,14.8279001 C2.40187646,21.4085837 7.4485089,26.6855889 13.7463883,26.614421 Z" id="Left-Sclera" fill="#FAFAFA" transform="translate(13.877439, 18.188383) rotate(-21.000000) translate(-13.877439, -18.188383) "></path>
                        <ellipse id="Left-Iris" fill="#52B13F" cx="14.56" cy="18.3703704" rx="3.36" ry="3.44444444"></ellipse>
                    </g>
                </g>
                <path d="M143.912506,6.00476336 C107.449669,7.59312849 87.0359711,36.7406124 65.0061153,57.4200934 C50.5917826,70.9508637 47.0071513,85.6354102 42.2381463,90.1440693 C30.1805282,101.543447 9.29861456,116.498474 11.110602,126.129113 C12.0133606,131.003407 12.8896807,133.185411 18.6008991,135.401426 C22.6453594,135.401426 26.6794179,136.748217 30.3393429,135.401426 C40.2756367,131.745038 49.5552283,124.764364 58.1112884,124.764364 C70.239096,121.698371 81.0372877,125.193879 90.0461699,117.988629 C99.055052,110.78338 111.294868,95.2279608 94.4320502,67.657367 C90.5061684,61.2385766 132.784627,11.134743 147.80494,17.403619 C166.609797,25.2520114 152.056243,5.65001235 143.912506,6.00476336 Z" id="Path" fill="url(#linearGradient-4)" mask="url(#mask-2)"></path>
                <rect id="Left-Nostral" fill="#417505" mask="url(#mask-2)" x="15" y="125" width="1" height="2" rx="0.5"></rect>
                <rect id="Right-Nostral" fill="#417505" mask="url(#mask-2)" x="23" y="126" width="1" height="2" rx="0.5"></rect>
                <g id="Left-Eye" mask="url(#mask-2)">
                    <g transform="translate(67.000000, 90.500000) scale(-1, 1) translate(-67.000000, -90.500000) translate(53.000000, 75.000000)">
                        <ellipse id="Left-Eye" fill="#457808" cx="12.32" cy="13.2037037" rx="11.2" ry="13.2037037"></ellipse>
                        <path d="M13.7463883,26.614421 C20.0442678,26.543253 25.2085154,21.1508619 25.2810582,14.5701782 C25.3536011,7.98949452 2.54696214,8.24721639 2.4744193,14.8279001 C2.40187646,21.4085837 7.4485089,26.6855889 13.7463883,26.614421 Z" id="Left-Sclera" fill="#FAFAFA" transform="translate(13.877439, 18.188383) rotate(-21.000000) translate(-13.877439, -18.188383) "></path>
                        <ellipse id="Left-Iris" fill="#52B13F" cx="14.56" cy="18.3703704" rx="3.36" ry="3.44444444"></ellipse>
                    </g>
                </g>
            </g>
        </g>
    </g>
</svg>